<?xml version='1.0' encoding='utf-8'?>
<svg xmlns="http://www.w3.org/2000/svg" id="Ebene_3" data-name="Ebene 3" viewBox="0 0 876.55 372.55"><defs><style>.cls-1{fill:#595859;}.cls-2{fill:#aa5226;}.cls-3{fill:#964923;}.cls-4{fill:#d6d6d6;}.cls-5{fill:#191919;}.cls-6{fill:#afaaaa;}.cls-7{fill:#969090;}.cls-8{fill:#424040;}.cls-9{font-size:12px;font-family:MyriadPro-Regular, Myriad Pro;}.cls-13,.cls-9{fill:#a8a7a7;}.cls-10{fill:#4f4e4f;}.cls-11{fill:#bfbbbf;}.cls-11,.cls-14{opacity:0.49;}.cls-12,.cls-14,.cls-19{fill:#e2e2e2;}.cls-15{fill:#d6d4d4;}.cls-16{fill:#666566;}.cls-17{fill:#d66b30;}.cls-18{fill:#7a7979;}.cls-19{opacity:0.68;}.cls-20{fill:#bcbcbc;}.cls-21{fill:#4c4c4c;}</style></defs><path class="cls-1" d="M864.83,147.22l-17.38,9.63h0l-4.28-1.13a194.67,194.67,0,0,0-26.5-6.52C803.19,147,754.11,124,745.85,117.93c-6.54-4.82-13.63-15.38-16.29-19.55a2.44,2.44,0,0,1,.41-3.11l4.15-3.84s22.66-2.12,34.32,0c14.34,2.61,23.89,11.73,35.62,18.68C813.84,115.91,852.32,139.53,864.83,147.22Z" transform="translate(-33.78 -27.58)"/><path class="cls-1" d="M702.94,74.82l-16.17-5.11L658.54,53.64,602.07,27.58l-11.73,2.17L615.1,41.48s39.53,16.94,44.74,17.81,13.47,6.08,16.94,8.25c2.84,1.77,19.93,10.8,26.09,14a1.38,1.38,0,0,0,2-1.33l-.2-2.61A8.09,8.09,0,0,0,702.94,74.82Z" transform="translate(-33.78 -27.58)"/><path class="cls-1" d="M211.62,98.38c-2.66,4.17-9.75,14.73-16.29,19.55C187.07,124,138,147,124.52,149.2A194.2,194.2,0,0,0,98,155.72l-2,.51-18.35-9.87c13.74-8.43,50-30.65,59.4-36.25,11.73-7,21.28-16.07,35.62-18.68,11.66-2.12,34.31,0,34.31,0l4.16,3.84A2.45,2.45,0,0,1,211.62,98.38Z" transform="translate(-33.78 -27.58)"/><path class="cls-1" d="M238.24,79.17l16.16-5.11L282.64,58l56.47-26.06,11.73,2.17L326.08,45.83s-39.53,16.94-44.75,17.81-13.46,6.08-16.94,8.25c-2.84,1.78-19.93,10.8-26.08,14a1.38,1.38,0,0,1-2-1.33l.19-2.61A8.2,8.2,0,0,1,238.24,79.17Z" transform="translate(-33.78 -27.58)"/><path class="cls-2" d="M96.07,156.23l-5.74,1.51a1.55,1.55,0,0,1-1.08-.1L75,150.89a1.57,1.57,0,0,1-.16-2.77c.79-.49,1.75-1.07,2.85-1.76Z" transform="translate(-33.78 -27.58)"/><path class="cls-3" d="M868.78,149.64l-17.37,8.25-4-1,17.38-9.63Z" transform="translate(-33.78 -27.58)"/><path class="cls-4" d="M536.59,109.05l32.57,14.62,4.57,15.47s-.23,2.65,3.95,7c2.89,3-6.15,7-12,9.12a8,8,0,0,1-8.12-1.61l-11.18-10.24L536.59,113Z" transform="translate(-33.78 -27.58)"/><path class="cls-4" d="M406.92,109.05l-32.58,14.62-4.56,15.47s.23,2.65-4,7c-2.89,3,6.15,7,12,9.12a8,8,0,0,0,8.12-1.61l11.18-10.24L406.92,113Z" transform="translate(-33.78 -27.58)"/><path class="cls-5" d="M509,330.78a54.34,54.34,0,0,0-.05,7.75c.3,6.64,1.14,15.25,1.69,20.45a4.23,4.23,0,0,1-4.15,4.67l-34.19.58-34.19-.58a4.23,4.23,0,0,1-4.15-4.67c.58-5.52,1.49-14.87,1.73-21.65a47.1,47.1,0,0,0-.09-6.55c-.13-1.1-.36-2.7-.64-4.62-1-7.19-2.87-18.88-3.86-25.23a4,4,0,0,1,3.82-4.65l33-1.32c2.91-.11,5.83-.11,8.74,0l33,1.32a4,4,0,0,1,3.82,4.65c-1,6-2.63,16.76-3.69,24C509.44,327.4,509.14,329.46,509,330.78Z" transform="translate(-33.78 -27.58)"/><rect class="cls-6" x="408.86" y="289.3" width="61.9" height="44.53" rx="8.28"/><rect class="cls-5" x="411.29" y="291.73" width="57.05" height="39.69" rx="7.5"/><circle class="cls-7" cx="448.63" cy="310.59" r="14.77"/><circle class="cls-8" cx="448.63" cy="310.59" r="12.73"/><circle class="cls-7" cx="448.63" cy="310.59" r="5.41"/><circle class="cls-8" cx="448.63" cy="310.59" r="4.67"/><text class="cls-9" transform="translate(412.34 319.06)">4K</text><path class="cls-10" d="M435.58,330.78a47.1,47.1,0,0,1,.09,6.55c-1.34-.34-2.57-.68-3.67-1,0-3.28-.06-6.46-.18-9.22.95-.31,2-.62,3.12-.91C435.22,328.08,435.45,329.68,435.58,330.78Z" transform="translate(-33.78 -27.58)"/><path class="cls-10" d="M512.37,325.43c-.19,3.54-.25,8-.25,12.49-1,.21-2.08.41-3.19.61a54.34,54.34,0,0,1,.05-7.75c.16-1.32.46-3.38.82-5.85Z" transform="translate(-33.78 -27.58)"/><path class="cls-11" d="M472.06,271.52v.22l-5.66-.14h-.09C461.35,271.47,457.11,271.32,472.06,271.52Z" transform="translate(-33.78 -27.58)"/><path class="cls-11" d="M477.81,271.6h-.09l-5.66-.08C487,271.32,482.77,271.47,477.81,271.6Z" transform="translate(-33.78 -27.58)"/><path class="cls-12" d="M518.67,64.5s15.2,11.29,16.5,19.11S546.47,144,546.47,144l35.18,24.13-1.73,70.13s-15.64,13.91-21.72,18.25-18.68,8.69-18.68,8.69Z" transform="translate(-33.78 -27.58)"/><path class="cls-13" d="M472.06,271.74v23s71.8,3.9,83.1,0,20.41-23,20.41-23l4.35-33.49s-21.29,25.63-40.4,26.94S472.06,271.74,472.06,271.74Z" transform="translate(-33.78 -27.58)"/><rect class="cls-5" x="438.27" y="261.07" width="24.45" height="3.91"/><polygon class="cls-12" points="513.12 239.78 513.12 249.34 505.73 261.07 505.73 244.17 513.12 239.78"/><polygon class="cls-14" points="505.73 261.07 526.9 251.16 513.99 246.84 505.73 261.07"/><path class="cls-5" d="M549.35,267.62l16.41-10.83a3.53,3.53,0,0,1,5.26,1.73h0a3.58,3.58,0,0,1,.21,1.21v10.12a3.52,3.52,0,0,1-1.58,2.94l-9,5.94a3.5,3.5,0,0,1-2.59.53l-7.45-1.38a3.52,3.52,0,0,1-2.88-3.46v-3.86A3.53,3.53,0,0,1,549.35,267.62Z" transform="translate(-33.78 -27.58)"/><path class="cls-10" d="M539.25,299.38l-2.13,23a5,5,0,0,1-2.13,3.68l-6.77,4.73V314a10.48,10.48,0,0,0-1.32-5.1l-3-5.44v-7h12.7A2.68,2.68,0,0,1,539.25,299.38Z" transform="translate(-33.78 -27.58)"/><path class="cls-5" d="M528.22,314V351.9a8.91,8.91,0,0,1-7.44,8.8l-4,.66a3.69,3.69,0,0,1-4.29-3.51c-.15-4.63-.37-12.43-.39-19.93,0-4.53.06-8.95.25-12.49.08-1.41.18-2.69.3-3.77,1.22-10.86,2.52-25.2,2.52-25.2h8.69v7l3,5.44A10.48,10.48,0,0,1,528.22,314Z" transform="translate(-33.78 -27.58)"/><path class="cls-15" d="M812.28,261.51,796.49,398.59a1.74,1.74,0,0,1-2.28,1.45l-10.28-3.43a1.74,1.74,0,0,1-1.18-1.89l13-95a7.94,7.94,0,0,0-1.56-5.92l-4.53-5.92a7.11,7.11,0,0,0-5-2.78c-5.29-.47-15.87-1.64-19.71-3.6-5.22-2.66-15-13.09-19.55-16.34-4.18-3-128.42-26.26-149-30.1a15.87,15.87,0,0,1-5.36-2l-11.18-6.74,1-28.23L751.72,224.9s2.22,3,5.43,6.67c5,5.69,12.24,13.06,17.37,13.85A167.92,167.92,0,0,0,800,247.08a4.28,4.28,0,0,1,.62,0,5.31,5.31,0,0,1,3.81,2l6.71,8.49A5.37,5.37,0,0,1,812.28,261.51Z" transform="translate(-33.78 -27.58)"/><polygon class="cls-12" points="778.49 233.94 792.75 224.91 799.6 229.42 781.68 360.43 762.7 371.01 778.49 233.94"/><path class="cls-16" d="M826.54,252.48l-14.26,9L800,247.08s8.86-2.74,11.36-6,3.54-4.89,3.54-4.89Z" transform="translate(-33.78 -27.58)"/><path class="cls-13" d="M814.93,215.18v21s-1,1.63-3.54,4.89-11.36,6-11.36,6a167.92,167.92,0,0,1-25.51-1.66c-4.82-.74-11.55-7.3-16.45-12.8a45.09,45.09,0,0,0,5.59-4.25,58.71,58.71,0,0,0,6-8.24c.74.3,1.49.57,2.25.83h0a44.47,44.47,0,0,0,17.51,3.49,42.88,42.88,0,0,0,22.38-6A9,9,0,0,0,814.93,215.18Z" transform="translate(-33.78 -27.58)"/><path class="cls-12" d="M777.43,207.07c-1.65,2.89-4.74,8.19-7.71,12.89-8.56-4.33-14.51-11.39-15.64-19.54a32.91,32.91,0,0,1,6.56-4.95h2.05l.53,1.76a9.41,9.41,0,0,0,7.65,6.56l5.33.77A1.69,1.69,0,0,1,777.43,207.07Z" transform="translate(-33.78 -27.58)"/><path class="cls-12" d="M814.93,215.18v-.4l-.36.26a9.89,9.89,0,0,0,0-9.39c.13.21.25.42.37.63A9,9,0,0,1,814.93,215.18Z" transform="translate(-33.78 -27.58)"/><path class="cls-17" d="M655.72,261c-9.79.57-12.6.54-12.6.54l-16.94-9,10.19-6Z" transform="translate(-33.78 -27.58)"/><path class="cls-18" d="M814.57,215l.36-.26v.4a9,9,0,0,1-3.15,3.27,42.88,42.88,0,0,1-22.38,6A44.47,44.47,0,0,1,771.89,221h0c-.73-.32-1.45-.64-2.14-1,3-4.7,6.06-10,7.71-12.89a1.69,1.69,0,0,0-1.23-2.51l-5.33-.77a9.41,9.41,0,0,1-7.65-6.56l-.53-1.76h-2.05c.83-.48,1.68-.94,2.57-1.36l.95-.44c.69-.32,1.4-.61,2.13-.89a42.25,42.25,0,0,1,4.34-1.38l1.27-.31.23-.05c.42-.1.85-.19,1.28-.27s.76-.15,1.15-.21.91-.15,1.37-.21l.75-.09c.78-.1,1.56-.17,2.36-.22.35,0,.7,0,1.06-.06s.59,0,.89,0l1.24,0c1.31,0,2.61,0,3.89.16l.83.08a42,42,0,0,1,4.73.73c.37.07.73.15,1.09.24s1,.23,1.42.36q.48.12,1,.27l.15,0,.92.29.84.28.86.31c.85.32,1.68.66,2.49,1l.87.4c1,.47,1.92,1,2.83,1.52.31.18.61.37.91.56a31.43,31.43,0,0,1,3.73,2.74l.83.73c.27.25.54.5.8.76s.51.51.76.78.49.52.72.79.47.54.69.82l.65.84c.21.28.41.57.61.85s.38.57.56.86l.17.28A9.89,9.89,0,0,1,814.57,215Z" transform="translate(-33.78 -27.58)"/><path class="cls-19" d="M814.37,205.37c-.18-.29-.37-.57-.56-.86.12.16.23.33.34.5S814.3,205.25,814.37,205.37Z" transform="translate(-33.78 -27.58)"/><path class="cls-16" d="M730.31,164.42h19.76a0,0,0,0,1,0,0v21.26a4.81,4.81,0,0,1-4.81,4.81H735.12a4.81,4.81,0,0,1-4.81-4.81V164.42A0,0,0,0,1,730.31,164.42Z"/><ellipse class="cls-13" cx="740.19" cy="164.42" rx="10.36" ry="5"/><path class="cls-16" d="M806.37,183v19.75a4.81,4.81,0,0,1-4.81,4.81H791.41a4.81,4.81,0,0,1-4.81-4.81V183c1.3,2,5.23,3.5,9.89,3.5a20,20,0,0,0,4.29-.45C803.44,185.42,805.49,184.31,806.37,183Z" transform="translate(-33.78 -27.58)"/><path class="cls-13" d="M806.85,181.46a2.75,2.75,0,0,1-.48,1.5c-.88,1.35-2.93,2.46-5.59,3a20,20,0,0,1-4.29.45c-4.66,0-8.59-1.47-9.89-3.5a2.68,2.68,0,0,1-.47-1.49c0-2.76,4.63-5,10.36-5,3.6,0,6.77.89,8.63,2.23A3.59,3.59,0,0,1,806.85,181.46Z" transform="translate(-33.78 -27.58)"/><path class="cls-5" d="M908.44,145.46c-4.28,3.48-16,11.52-24.45,14.8-10.21,3.93-28,9.14-34.54,11.1s-20.85,10.42-24.54,13.25S806.37,192,806.37,192v-9a2.75,2.75,0,0,0,.48-1.5,3.59,3.59,0,0,0-1.73-2.77s36.3-20.36,48-24.06c7.72-2.43,22.21-7.21,31.22-10.2Z" transform="translate(-33.78 -27.58)"/><path class="cls-17" d="M910.05,144a11,11,0,0,1-1.61,1.47l-24.07-1,7.87-2.61h16.51S911.14,142.47,910.05,144Z" transform="translate(-33.78 -27.58)"/><path class="cls-20" d="M578,165.33a.49.49,0,0,1,0-.9c7.78-2.81,53.38-19.23,67.07-22.61,13.3-3.27,43.17-10.82,49.75-12.49.85-.21,1.78.31,2.58,0,4.85-2.07,16,1,23.09,1,8.47,0,20.2,1.79,22.81-3.42,2.1-4.2,1,12.12.4,17.79a4.9,4.9,0,0,1-2.15,3.58c-3.42,2.3-9.49,6.48-15,6.81-5.85.34-25.74-6.35-30.4-4.56-2,.78-5.12,8.31-6.58,12.13a4.82,4.82,0,0,1-3.12,2.9L598.16,192s-9.2-.39-13-5,7-15.42-.65-18.79Z" transform="translate(-33.78 -27.58)"/><polygon class="cls-12" points="705.3 177.79 560.03 148.88 550.04 133.79 530.69 145.95 535.27 170.5 547.13 170.5 679.92 191.13 705.3 177.79"/><path class="cls-13" d="M578,165.33l-13.51-9,15.45-11.91,102.51-24.88s8.25-4.23,8.25-6.4S692,127,707,128.24C725.22,129.77,578,165.33,578,165.33Z" transform="translate(-33.78 -27.58)"/><path class="cls-5" d="M777.43,207.07c-1.65,2.89-4.74,8.19-7.71,12.89l-.11.17a58.71,58.71,0,0,1-6,8.24,45.09,45.09,0,0,1-5.59,4.25c-12,8.12-40.24,23.68-70,26.05-15.18,1.21-25.49,1.9-32.36,2.3L636.37,246.5l85.1-50a7.65,7.65,0,0,1,3.87-1.05h37.35l.53,1.76a9.41,9.41,0,0,0,7.65,6.56l5.33.77A1.69,1.69,0,0,1,777.43,207.07Z" transform="translate(-33.78 -27.58)"/><path class="cls-13" d="M743.63,103.45l.88,26.21c-6,2.69-14.28,4.14-22.34,4.14-13.6,0-25.4-4.52-31.32-11.15V95.12a11.57,11.57,0,0,1,4.4-7c3.74-2.65,12.61-3.1,18.89-3.75s21,8.48,21,8.48l2,.83A10.65,10.65,0,0,1,743.63,103.45Z" transform="translate(-33.78 -27.58)"/><ellipse class="cls-21" cx="718.15" cy="96.37" rx="10.67" ry="22.49" transform="translate(410.04 739.44) rotate(-75.4)"/><path class="cls-16" d="M739.09,87.13v13.64a3.32,3.32,0,0,1-3.32,3.32h-7a3.32,3.32,0,0,1-3.32-3.32V87.13c.9,1.4,3.61,2.41,6.83,2.41a13.79,13.79,0,0,0,3-.31A6.15,6.15,0,0,0,739.09,87.13Z" transform="translate(-33.78 -27.58)"/><path class="cls-13" d="M739.42,86.1a1.9,1.9,0,0,1-.33,1,6.15,6.15,0,0,1-3.86,2.1,13.79,13.79,0,0,1-3,.31c-3.22,0-5.93-1-6.83-2.41a1.89,1.89,0,0,1-.32-1c0-1.91,3.19-3.45,7.15-3.45a10.64,10.64,0,0,1,6,1.54A2.48,2.48,0,0,1,739.42,86.1Z" transform="translate(-33.78 -27.58)"/><path class="cls-16" d="M716.91,75.85V89.49a3.32,3.32,0,0,1-3.32,3.32h-7a3.32,3.32,0,0,1-3.32-3.32V75.85c.9,1.4,3.61,2.41,6.83,2.41a13.86,13.86,0,0,0,3-.31A6.18,6.18,0,0,0,716.91,75.85Z" transform="translate(-33.78 -27.58)"/><path class="cls-13" d="M717.24,74.82a1.9,1.9,0,0,1-.33,1,6.18,6.18,0,0,1-3.86,2.1,13.86,13.86,0,0,1-3,.31c-3.22,0-5.93-1-6.83-2.41a1.89,1.89,0,0,1-.32-1c0-1.91,3.19-3.45,7.15-3.45A10.58,10.58,0,0,1,716,72.91,2.45,2.45,0,0,1,717.24,74.82Z" transform="translate(-33.78 -27.58)"/><path class="cls-20" d="M539.52,265.19s-11.73,7.16-54.73,6.51l-7-.1c5-.13,9.2-.28-5.75-.08-14.95-.2-10.71,0-5.75.08l-7,.1c-43,.65-54.73-6.51-54.73-6.51s.65-37.8,3.26-95.14A470.12,470.12,0,0,1,425.45,64.5h93.22a470.12,470.12,0,0,1,17.59,105.55C538.87,227.39,539.52,265.19,539.52,265.19Z" transform="translate(-33.78 -27.58)"/><path class="cls-11" d="M472.06,271.52l-5.66.08h-.09C461.35,271.47,457.11,271.32,472.06,271.52Z" transform="translate(-33.78 -27.58)"/><path class="cls-11" d="M477.81,271.6h-.09l-5.66.14v-.22C487,271.32,482.77,271.47,477.81,271.6Z" transform="translate(-33.78 -27.58)"/><path class="cls-12" d="M425.45,64.5s-15.2,11.29-16.51,19.11S397.65,144,397.65,144l-35.19,24.13,1.74,70.13s15.64,13.91,21.72,18.25,18.68,8.69,18.68,8.69Z" transform="translate(-33.78 -27.58)"/><path class="cls-13" d="M472.06,271.74v23s-71.8,3.9-83.1,0-20.41-23-20.41-23l-4.35-33.49s21.29,25.63,40.4,26.94S472.06,271.74,472.06,271.74Z" transform="translate(-33.78 -27.58)"/><rect class="cls-5" x="447.6" y="288.64" width="24.45" height="3.91" transform="translate(885.88 553.62) rotate(-180)"/><polygon class="cls-12" points="363.43 239.78 363.43 249.34 370.82 261.07 370.82 244.17 363.43 239.78"/><polygon class="cls-14" points="370.82 261.07 349.65 251.16 362.56 246.84 370.82 261.07"/><path class="cls-5" d="M394.76,267.62l-16.41-10.83a3.52,3.52,0,0,0-5.25,1.73h0a3.58,3.58,0,0,0-.21,1.21v10.12a3.52,3.52,0,0,0,1.58,2.94l9,5.94a3.49,3.49,0,0,0,2.59.53l7.45-1.38a3.52,3.52,0,0,0,2.88-3.46v-3.86A3.51,3.51,0,0,0,394.76,267.62Z" transform="translate(-33.78 -27.58)"/><path class="cls-10" d="M404.87,299.38l2.12,23a5.08,5.08,0,0,0,2.14,3.68l6.77,4.73V314a10.48,10.48,0,0,1,1.32-5.1l3-5.44v-7H407.53A2.67,2.67,0,0,0,404.87,299.38Z" transform="translate(-33.78 -27.58)"/><path class="cls-5" d="M432,336.29c0,8-.23,16.59-.39,21.56a3.69,3.69,0,0,1-4.29,3.51l-4-.66a8.91,8.91,0,0,1-7.44-8.8V314a10.48,10.48,0,0,1,1.32-5.1l3-5.44v-7h8.69s1.3,14.34,2.52,25.2c.17,1.49.29,3.34.37,5.41C431.94,329.83,432,333,432,336.29Z" transform="translate(-33.78 -27.58)"/><path class="cls-15" d="M131.84,261.51l15.79,137.08a1.74,1.74,0,0,0,2.28,1.45l10.28-3.43a1.74,1.74,0,0,0,1.18-1.89l-13-95a7.94,7.94,0,0,1,1.56-5.92l4.53-5.92a7.11,7.11,0,0,1,5-2.78c5.29-.47,15.87-1.64,19.71-3.6,5.22-2.66,15-13.09,19.55-16.34,4.18-3,128.42-26.26,149-30.1a15.87,15.87,0,0,0,5.36-2l11.18-6.74-1-28.23L192.4,224.9s-2.22,3-5.43,6.67c-4.95,5.69-12.24,13.06-17.37,13.85a167.92,167.92,0,0,1-25.51,1.66,4.28,4.28,0,0,0-.62,0,5.31,5.31,0,0,0-3.81,2L133,257.59A5.37,5.37,0,0,0,131.84,261.51Z" transform="translate(-33.78 -27.58)"/><polygon class="cls-12" points="98.06 233.94 83.79 224.91 76.95 229.42 94.87 360.43 113.85 371.01 98.06 233.94"/><path class="cls-16" d="M117.58,252.48l14.26,9,12.25-14.43s-8.86-2.74-11.36-6-3.54-4.89-3.54-4.89Z" transform="translate(-33.78 -27.58)"/><path class="cls-13" d="M129.19,215.18v21s1,1.63,3.54,4.89,11.36,6,11.36,6a167.92,167.92,0,0,0,25.51-1.66c4.82-.74,11.55-7.3,16.45-12.8a45.09,45.09,0,0,1-5.59-4.25,58.71,58.71,0,0,1-6-8.24c-.74.3-1.49.57-2.25.83h0a44.47,44.47,0,0,1-17.51,3.49,42.88,42.88,0,0,1-22.38-6A9,9,0,0,1,129.19,215.18Z" transform="translate(-33.78 -27.58)"/><path class="cls-12" d="M166.69,207.07c1.65,2.89,4.74,8.19,7.71,12.89,8.56-4.33,14.51-11.39,15.64-19.54a32.91,32.91,0,0,0-6.56-4.95h-2l-.53,1.76a9.41,9.41,0,0,1-7.65,6.56l-5.33.77A1.69,1.69,0,0,0,166.69,207.07Z" transform="translate(-33.78 -27.58)"/><path class="cls-12" d="M129.19,215.18v-.4l.36.26a9.89,9.89,0,0,1,0-9.39c-.13.21-.25.42-.37.63A9,9,0,0,0,129.19,215.18Z" transform="translate(-33.78 -27.58)"/><path class="cls-17" d="M288.4,261c9.79.57,12.6.54,12.6.54l16.94-9-10.19-6Z" transform="translate(-33.78 -27.58)"/><path class="cls-18" d="M129.55,215l-.36-.26v.4a9,9,0,0,0,3.15,3.27,42.88,42.88,0,0,0,22.38,6A44.47,44.47,0,0,0,172.23,221h0c.73-.32,1.45-.64,2.14-1-3-4.7-6.06-10-7.71-12.89a1.69,1.69,0,0,1,1.23-2.51l5.33-.77a9.41,9.41,0,0,0,7.65-6.56l.53-1.76h2c-.83-.48-1.68-.94-2.57-1.36l-.95-.44c-.69-.32-1.4-.61-2.13-.89a42.25,42.25,0,0,0-4.34-1.38l-1.27-.31L172,191c-.42-.1-.85-.19-1.28-.27s-.76-.15-1.15-.21-.91-.15-1.37-.21l-.75-.09c-.78-.1-1.56-.17-2.36-.22-.35,0-.7,0-1.06-.06s-.59,0-.89,0l-1.24,0c-1.31,0-2.61,0-3.89.16l-.83.08a42,42,0,0,0-4.73.73c-.37.07-.73.15-1.09.24s-.95.23-1.42.36q-.48.12-1,.27l-.15,0-.92.29-.84.28-.86.31c-.85.32-1.68.66-2.49,1l-.87.4c-1,.47-1.92,1-2.83,1.52-.31.18-.61.37-.91.56a31.43,31.43,0,0,0-3.73,2.74l-.83.73c-.27.25-.54.5-.8.76s-.51.51-.76.78-.49.52-.72.79-.47.54-.69.82l-.65.84c-.21.28-.41.57-.61.85s-.38.57-.56.86l-.17.28A9.89,9.89,0,0,0,129.55,215Z" transform="translate(-33.78 -27.58)"/><path class="cls-19" d="M129.75,205.37c.18-.29.37-.57.56-.86-.12.16-.23.33-.34.5S129.82,205.25,129.75,205.37Z" transform="translate(-33.78 -27.58)"/><path class="cls-16" d="M165.06,192h10.15A4.81,4.81,0,0,1,180,196.8v21.26a0,0,0,0,1,0,0H160.26a0,0,0,0,1,0,0V196.8A4.81,4.81,0,0,1,165.06,192Z" transform="translate(306.49 382.47) rotate(-180)"/><ellipse class="cls-13" cx="136.36" cy="164.42" rx="10.36" ry="5"/><path class="cls-16" d="M137.75,183v19.75a4.81,4.81,0,0,0,4.81,4.81h10.15a4.81,4.81,0,0,0,4.81-4.81V183c-1.3,2-5.23,3.5-9.89,3.5a20,20,0,0,1-4.29-.45C140.68,185.42,138.63,184.31,137.75,183Z" transform="translate(-33.78 -27.58)"/><path class="cls-13" d="M137.27,181.46a2.75,2.75,0,0,0,.48,1.5c.88,1.35,2.93,2.46,5.59,3a20,20,0,0,0,4.29.45c4.66,0,8.59-1.47,9.89-3.5a2.68,2.68,0,0,0,.47-1.49c0-2.76-4.63-5-10.36-5-3.6,0-6.77.89-8.63,2.23A3.59,3.59,0,0,0,137.27,181.46Z" transform="translate(-33.78 -27.58)"/><path class="cls-5" d="M35.68,145.46c4.28,3.48,16,11.52,24.45,14.8,10.21,3.93,28,9.14,34.54,11.1s20.85,10.42,24.54,13.25S137.75,192,137.75,192v-9a2.75,2.75,0,0,1-.48-1.5,3.59,3.59,0,0,1,1.73-2.77s-36.3-20.36-48-24.06c-7.72-2.43-22.21-7.21-31.22-10.2Z" transform="translate(-33.78 -27.58)"/><path class="cls-17" d="M34.07,144a11,11,0,0,0,1.61,1.47l24.07-1-7.87-2.61H35.37S33,142.47,34.07,144Z" transform="translate(-33.78 -27.58)"/><path class="cls-20" d="M366.14,165.33a.48.48,0,0,0,0-.9c-7.77-2.81-53.37-19.23-67.07-22.61-13.29-3.27-43.16-10.82-49.74-12.49-.85-.21-1.78.31-2.58,0-4.85-2.07-16,1-23.1,1-8.47,0-20.2,1.79-22.8-3.42-2.1-4.2-1,12.12-.4,17.79a4.92,4.92,0,0,0,2.14,3.58c3.43,2.3,9.5,6.48,15,6.81,5.85.34,25.73-6.35,30.4-4.56,2,.78,5.12,8.31,6.58,12.13a4.8,4.8,0,0,0,3.12,2.9L346,192s9.2-.39,13-5-6.95-15.42.65-18.79Z" transform="translate(-33.78 -27.58)"/><polygon class="cls-12" points="171.25 177.79 316.52 148.88 326.51 133.79 345.86 145.95 341.28 170.5 329.43 170.5 196.63 191.13 171.25 177.79"/><path class="cls-13" d="M366.14,165.33l13.5-9L364.2,144.43,261.69,119.55s-8.26-4.23-8.26-6.4S252.1,127,237.11,128.24C218.9,129.77,366.14,165.33,366.14,165.33Z" transform="translate(-33.78 -27.58)"/><path class="cls-5" d="M166.69,207.07c1.65,2.89,4.74,8.19,7.71,12.89l.11.17a58.71,58.71,0,0,0,6,8.24,45.09,45.09,0,0,0,5.59,4.25c12,8.12,40.24,23.68,70,26.05,15.18,1.21,25.49,1.9,32.36,2.3l19.35-14.47-85.1-50a7.65,7.65,0,0,0-3.87-1.05H181.43l-.53,1.76a9.41,9.41,0,0,1-7.65,6.56l-5.33.77A1.69,1.69,0,0,0,166.69,207.07Z" transform="translate(-33.78 -27.58)"/><path class="cls-13" d="M200.49,103.45l-.88,26.21c5.95,2.69,14.28,4.14,22.34,4.14,13.6,0,25.4-4.52,31.32-11.15V95.12a11.62,11.62,0,0,0-4.41-7c-3.74-2.65-12.6-3.1-18.88-3.75s-21,8.48-21,8.48l-2,.83A10.65,10.65,0,0,0,200.49,103.45Z" transform="translate(-33.78 -27.58)"/><ellipse class="cls-21" cx="225.96" cy="96.37" rx="22.49" ry="10.67" transform="translate(-50.78 32.51) rotate(-14.6)"/><path class="cls-16" d="M205,87.13v13.64a3.32,3.32,0,0,0,3.32,3.32h7a3.33,3.33,0,0,0,3.32-3.32V87.13c-.9,1.4-3.61,2.41-6.83,2.41a13.72,13.72,0,0,1-3-.31A6.15,6.15,0,0,1,205,87.13Z" transform="translate(-33.78 -27.58)"/><path class="cls-13" d="M204.7,86.1a1.82,1.82,0,0,0,.33,1,6.15,6.15,0,0,0,3.86,2.1,13.72,13.72,0,0,0,3,.31c3.22,0,5.93-1,6.83-2.41a1.89,1.89,0,0,0,.32-1c0-1.91-3.2-3.45-7.15-3.45a10.62,10.62,0,0,0-6,1.54A2.48,2.48,0,0,0,204.7,86.1Z" transform="translate(-33.78 -27.58)"/><path class="cls-16" d="M227.21,75.85V89.49a3.32,3.32,0,0,0,3.32,3.32h7a3.32,3.32,0,0,0,3.32-3.32V75.85c-.9,1.4-3.61,2.41-6.83,2.41a13.72,13.72,0,0,1-3-.31A6.15,6.15,0,0,1,227.21,75.85Z" transform="translate(-33.78 -27.58)"/><path class="cls-13" d="M226.88,74.82a1.9,1.9,0,0,0,.33,1,6.15,6.15,0,0,0,3.86,2.1,13.72,13.72,0,0,0,3,.31c3.22,0,5.93-1,6.83-2.41a1.89,1.89,0,0,0,.32-1c0-1.91-3.19-3.45-7.15-3.45a10.64,10.64,0,0,0-6,1.54A2.46,2.46,0,0,0,226.88,74.82Z" transform="translate(-33.78 -27.58)"/></svg>