<svg width="130" height="28" viewBox="0 0 130 28" fill="none" xmlns="http://www.w3.org/2000/svg">
<circle cx="8.5818" cy="10.6227" r="3.37734" fill="#DF8928"/>
<circle cx="8.58177" cy="17.3773" r="3.37734" fill="#DF8928"/>
<circle cx="15.3365" cy="10.6227" r="3.37734" fill="#DF8928"/>
<circle cx="15.3365" cy="17.3773" r="3.37734" fill="#DF8928"/>
<path d="M30.5529 11.1538C30.4652 11.0661 30.3024 10.9471 30.0644 10.7968C29.8389 10.6464 29.557 10.5024 29.2188 10.3646C28.8931 10.2268 28.5361 10.1078 28.1477 10.0076C27.7594 9.89482 27.3648 9.83845 26.9639 9.83845C26.2624 9.83845 25.73 9.96998 25.3667 10.233C25.016 10.4961 24.8406 10.8657 24.8406 11.3417C24.8406 11.705 24.9534 11.9931 25.1788 12.206C25.4043 12.419 25.7426 12.6006 26.1935 12.751C26.6445 12.9013 27.2082 13.0641 27.8847 13.2395C28.7616 13.4525 29.5194 13.7156 30.1583 14.0287C30.8097 14.3294 31.3045 14.7302 31.6428 15.2313C31.9935 15.7199 32.1689 16.3713 32.1689 17.1855C32.1689 17.8996 32.0374 18.5134 31.7743 19.027C31.5112 19.5281 31.148 19.9352 30.6845 20.2484C30.221 20.5616 29.6948 20.7933 29.1061 20.9436C28.5173 21.0814 27.8909 21.1503 27.227 21.1503C26.5631 21.1503 25.8991 21.0814 25.2352 20.9436C24.5713 20.8058 23.9324 20.6117 23.3186 20.3611C22.7048 20.0981 22.141 19.7849 21.6274 19.4216L22.7737 17.1855C22.8864 17.2983 23.0868 17.4486 23.3749 17.6365C23.6631 17.8119 24.0138 17.9935 24.4272 18.1814C24.8406 18.3568 25.2916 18.5071 25.7801 18.6324C26.2687 18.7577 26.7635 18.8203 27.2646 18.8203C27.9661 18.8203 28.4985 18.7013 28.8618 18.4633C29.2251 18.2253 29.4067 17.887 29.4067 17.4486C29.4067 17.0477 29.2626 16.7346 28.9745 16.5091C28.6864 16.2836 28.2855 16.0894 27.7719 15.9266C27.2583 15.7512 26.6508 15.5633 25.9492 15.3629C25.1099 15.1248 24.4084 14.8618 23.8447 14.5737C23.281 14.273 22.8613 13.8972 22.5857 13.4462C22.3102 12.9952 22.1724 12.4315 22.1724 11.7551C22.1724 10.8406 22.3853 10.0765 22.8112 9.46264C23.2497 8.83629 23.8384 8.36652 24.5775 8.05335C25.3166 7.72765 26.1372 7.5648 27.0391 7.5648C27.6654 7.5648 28.2542 7.63369 28.8054 7.77149C29.3691 7.90929 29.8953 8.09093 30.3838 8.31642C30.8724 8.5419 31.3108 8.78618 31.6991 9.04924L30.5529 11.1538ZM34.1284 21V7.67754H36.7215V14.0099L42.3211 7.65875H45.1772L40.0662 13.5778L45.4966 21H42.5653L38.4126 15.2501L36.7215 17.0164V21H34.1284ZM48.2015 7.65875L51.4898 13.9348L54.8345 7.65875H57.6343L52.7863 16.34V21H50.212V16.3024L45.3829 7.65875H48.2015ZM59.1029 21V7.65875H63.9508C65.404 7.65875 66.6191 7.9594 67.5962 8.56069C68.5733 9.14946 69.3061 9.95119 69.7947 10.9659C70.2832 11.968 70.5275 13.0829 70.5275 14.3106C70.5275 15.6635 70.2582 16.841 69.7195 17.8432C69.1808 18.8454 68.4167 19.622 67.4271 20.1732C66.45 20.7244 65.2912 21 63.9508 21H59.1029ZM67.9156 14.3106C67.9156 13.4462 67.759 12.6883 67.4459 12.0369C67.1327 11.373 66.6817 10.8594 66.0929 10.4961C65.5042 10.1203 64.7901 9.9324 63.9508 9.9324H61.696V18.7263H63.9508C64.8027 18.7263 65.523 18.5384 66.1117 18.1626C66.7005 17.7743 67.1452 17.2482 67.4459 16.5842C67.759 15.9078 67.9156 15.1499 67.9156 14.3106ZM72.5535 21V7.65875H78.4537C79.0675 7.65875 79.6312 7.78402 80.1449 8.03456C80.671 8.2851 81.122 8.62333 81.4978 9.04924C81.8861 9.47516 82.1805 9.95119 82.3809 10.4773C82.5939 11.0035 82.7004 11.5421 82.7004 12.0933C82.7004 12.657 82.6001 13.2019 82.3997 13.7281C82.2118 14.2417 81.9362 14.6927 81.5729 15.081C81.2096 15.4693 80.7837 15.77 80.2952 15.9829L83.3392 21H80.4831L77.7397 16.5279H75.1466V21H72.5535ZM75.1466 14.2542H78.3973C78.723 14.2542 79.0112 14.1603 79.2617 13.9724C79.5122 13.7719 79.7127 13.5089 79.863 13.1832C80.0133 12.8575 80.0885 12.4942 80.0885 12.0933C80.0885 11.6674 80.0008 11.2978 79.8254 10.9847C79.65 10.659 79.4245 10.4022 79.149 10.2143C78.8859 10.0264 78.5978 9.9324 78.2846 9.9324H75.1466V14.2542ZM90.67 21.094C89.6929 21.094 88.8035 20.906 88.0018 20.5302C87.2126 20.1544 86.5299 19.6471 85.9536 19.0082C85.3899 18.3568 84.9514 17.6302 84.6383 16.8285C84.3251 16.0143 84.1685 15.1812 84.1685 14.3294C84.1685 13.44 84.3314 12.5944 84.6571 11.7927C84.9953 10.9784 85.4525 10.2581 86.0288 9.63175C86.6175 8.99287 87.3065 8.49179 88.0957 8.12851C88.8975 7.7527 89.7743 7.5648 90.7264 7.5648C91.691 7.5648 92.5679 7.75896 93.3571 8.1473C94.1588 8.53564 94.8415 9.05551 95.4052 9.70691C95.9689 10.3583 96.4074 11.0849 96.7206 11.8866C97.0337 12.6883 97.1903 13.5151 97.1903 14.367C97.1903 15.2438 97.0275 16.0894 96.7018 16.9037C96.3761 17.7054 95.9188 18.4257 95.3301 19.0646C94.7538 19.6909 94.0648 20.1857 93.2631 20.549C92.4739 20.9123 91.6095 21.094 90.67 21.094ZM86.7992 14.3294C86.7992 14.9056 86.8869 15.4631 87.0622 16.0017C87.2376 16.5404 87.4882 17.0227 87.8139 17.4486C88.1521 17.862 88.5592 18.194 89.0353 18.4445C89.5238 18.6825 90.075 18.8015 90.6888 18.8015C91.3152 18.8015 91.8726 18.6762 92.3612 18.4257C92.8497 18.1626 93.2568 17.8181 93.5825 17.3922C93.9083 16.9538 94.1525 16.4715 94.3154 15.9454C94.4908 15.4067 94.5784 14.868 94.5784 14.3294C94.5784 13.7531 94.4845 13.2019 94.2966 12.6758C94.1212 12.1371 93.8644 11.6611 93.5262 11.2477C93.2005 10.8218 92.7933 10.4898 92.3048 10.2518C91.8288 10.0013 91.2901 9.87603 90.6888 9.87603C90.0499 9.87603 89.4862 10.0076 88.9977 10.2706C88.5216 10.5212 88.1208 10.8594 87.7951 11.2853C87.4694 11.7112 87.2188 12.1873 87.0435 12.7134C86.8806 13.2395 86.7992 13.7782 86.7992 14.3294ZM101.773 12.4315V21H99.1795V7.65875H101.246L108.143 16.4527V7.67754H110.736V21H108.575L101.773 12.4315ZM122.775 18.7263V21H113.511V7.65875H122.605V9.9324H116.104V13.1456H121.722V15.2501H116.104V18.7263H122.775Z" fill="#393939"/>
</svg>
