<svg width="207" height="46" fill="none" xmlns="http://www.w3.org/2000/svg"><circle cx="13.73" cy="17.597" r="5.403" fill="#BE3144"/><circle cx="13.73" cy="28.403" r="5.403" fill="#BE3144"/><circle cx="24.536" cy="17.597" r="5.403" fill="#BE3144"/><circle cx="24.536" cy="28.403" r="5.403" fill="#BE3144"/><path d="M48.88 17.747c-.14-.14-.4-.33-.781-.57a7.67 7.67 0 0 0-1.353-.692 12.25 12.25 0 0 0-1.713-.571 6.759 6.759 0 0 0-1.894-.271c-1.123 0-1.974.21-2.556.631-.56.421-.841 1.012-.841 1.774 0 .581.18 1.042.54 1.383.362.34.903.631 1.624.872.722.24 1.624.5 2.706.781 1.403.341 2.615.762 3.637 1.263 1.042.48 1.834 1.122 2.375 1.924.561.781.842 1.824.842 3.126 0 1.143-.21 2.125-.631 2.947a5.286 5.286 0 0 1-1.744 1.953 8.009 8.009 0 0 1-2.525 1.113c-.942.22-1.944.33-3.006.33a15.64 15.64 0 0 1-3.187-.33 17.51 17.51 0 0 1-3.066-.932 14.684 14.684 0 0 1-2.706-1.503l1.834-3.578c.18.18.5.421.962.722.46.28 1.022.571 1.683.872.662.28 1.383.52 2.165.721.781.2 1.573.3 2.375.3 1.122 0 1.974-.19 2.555-.57.581-.381.872-.922.872-1.624 0-.641-.23-1.142-.692-1.503-.46-.36-1.102-.671-1.924-.932a61.157 61.157 0 0 0-2.916-.902c-1.342-.38-2.465-.801-3.367-1.262-.902-.481-1.573-1.082-2.014-1.804-.44-.721-.661-1.623-.661-2.706 0-1.463.34-2.685 1.022-3.667.701-1.002 1.643-1.754 2.826-2.255 1.182-.521 2.495-.782 3.938-.782 1.002 0 1.944.11 2.826.331.902.22 1.743.511 2.525.872.782.36 1.483.752 2.104 1.172l-1.833 3.367ZM54.6 33.5V12.186h4.15v10.13l8.958-10.16h4.57l-8.177 9.47L72.789 33.5h-4.69l-6.644-9.2-2.706 2.827V33.5h-4.148Zm22.516-21.344 5.26 10.04 5.352-10.04h4.48L84.45 26.045V33.5h-4.118v-7.516l-7.726-13.828h4.509ZM94.556 33.5V12.156h7.757c2.325 0 4.269.48 5.832 1.443 1.563.942 2.736 2.224 3.517 3.848.782 1.603 1.173 3.387 1.173 5.35 0 2.165-.431 4.05-1.293 5.652a9.124 9.124 0 0 1-3.668 3.728c-1.563.882-3.417 1.323-5.561 1.323h-7.756Zm14.1-10.702c0-1.383-.251-2.595-.752-3.638-.501-1.062-1.222-1.884-2.164-2.465-.942-.601-2.084-.902-3.427-.902h-3.608v14.07h3.608c1.363 0 2.515-.301 3.457-.902a5.843 5.843 0 0 0 2.134-2.526c.501-1.082.752-2.294.752-3.637Zm7.42 10.702V12.156h9.439c.983 0 1.884.2 2.706.601.842.4 1.563.942 2.165 1.623a7.129 7.129 0 0 1 1.412 2.285 6.83 6.83 0 0 1 .512 2.585 7.3 7.3 0 0 1-.481 2.616 6.31 6.31 0 0 1-1.323 2.164 6.12 6.12 0 0 1-2.044 1.443l4.87 8.027h-4.57l-4.389-7.155h-4.148V33.5h-4.149Zm4.149-10.792h5.2c.521 0 .982-.15 1.383-.451a3.41 3.41 0 0 0 .962-1.263 4.104 4.104 0 0 0 .361-1.744c0-.68-.14-1.272-.421-1.773a3.422 3.422 0 0 0-1.082-1.233 2.328 2.328 0 0 0-1.383-.45h-5.02v6.914ZM145.06 33.65c-1.563 0-2.986-.3-4.269-.902a10.367 10.367 0 0 1-3.277-2.435 11.914 11.914 0 0 1-2.104-3.487 11.052 11.052 0 0 1-.752-3.998c0-1.423.261-2.776.782-4.058a11.669 11.669 0 0 1 2.195-3.458 10.329 10.329 0 0 1 3.306-2.405c1.283-.6 2.686-.902 4.209-.902 1.543 0 2.946.311 4.209.932a10.102 10.102 0 0 1 3.277 2.496 11.911 11.911 0 0 1 2.104 3.487c.501 1.282.752 2.605.752 3.968 0 1.403-.261 2.756-.782 4.058a11.384 11.384 0 0 1-2.195 3.458 10.11 10.11 0 0 1-3.306 2.375c-1.263.58-2.646.871-4.149.871Zm-6.193-10.822c0 .922.14 1.814.421 2.675a7.712 7.712 0 0 0 1.202 2.315 6.282 6.282 0 0 0 1.955 1.593c.781.381 1.663.572 2.645.572 1.002 0 1.894-.2 2.676-.602a6.021 6.021 0 0 0 1.954-1.653 7.652 7.652 0 0 0 1.172-2.315 8.296 8.296 0 0 0 .421-2.585 7.8 7.8 0 0 0-.451-2.646 6.975 6.975 0 0 0-1.233-2.284 5.4 5.4 0 0 0-1.954-1.594c-.761-.4-1.623-.6-2.585-.6-1.022 0-1.924.21-2.706.63a5.787 5.787 0 0 0-1.924 1.624 7.793 7.793 0 0 0-1.202 2.285 8.68 8.68 0 0 0-.391 2.585Zm23.956-3.036V33.5h-4.149V12.156h3.307l11.033 14.069v-14.04h4.148V33.5h-3.457l-10.882-13.708Zm33.6 10.07V33.5h-14.821V12.156h14.55v3.637h-10.401v5.141h8.988v3.367h-8.988v5.562h10.672Z" fill="#F5F5F5"/></svg>