<svg width="286" height="64" fill="none" xmlns="http://www.w3.org/2000/svg"><circle cx="19.235" cy="24.843" r="7.492" fill="#F5F5F5"/><circle cx="19.235" cy="39.827" r="7.492" fill="#F5F5F5"/><circle cx="34.219" cy="24.843" r="7.492" fill="#F5F5F5"/><circle cx="34.219" cy="39.827" r="7.492" fill="#F5F5F5"/><path d="M67.974 24.993c-.195-.194-.556-.458-1.084-.792-.5-.333-1.126-.653-1.876-.959a17.008 17.008 0 0 0-2.376-.792 9.373 9.373 0 0 0-2.626-.375c-1.556 0-2.737.292-3.543.876-.778.583-1.167 1.403-1.167 2.459 0 .806.25 1.445.75 1.917.5.473 1.25.876 2.251 1.21 1 .332 2.251.694 3.752 1.083 1.945.472 3.626 1.056 5.043 1.75 1.445.668 2.543 1.557 3.293 2.668.778 1.084 1.167 2.529 1.167 4.335 0 1.584-.292 2.946-.875 4.085a7.329 7.329 0 0 1-2.418 2.71c-1.028.694-2.195 1.208-3.501 1.542a18.249 18.249 0 0 1-4.168.458c-1.473 0-2.946-.152-4.419-.458a24.283 24.283 0 0 1-4.251-1.292 20.352 20.352 0 0 1-3.752-2.084l2.543-4.96c.25.25.694.583 1.334 1 .639.389 1.417.792 2.334 1.209.917.389 1.917.722 3.001 1a13.2 13.2 0 0 0 3.293.417c1.556 0 2.737-.264 3.543-.792s1.209-1.279 1.209-2.251c0-.89-.32-1.584-.959-2.084s-1.528-.931-2.667-1.292a84.807 84.807 0 0 0-4.044-1.251c-1.862-.528-3.418-1.111-4.668-1.75-1.25-.668-2.182-1.501-2.793-2.502-.611-1-.917-2.25-.917-3.751 0-2.029.472-3.724 1.417-5.086.973-1.389 2.279-2.431 3.918-3.126 1.64-.722 3.46-1.083 5.46-1.083 1.39 0 2.696.152 3.92.458a19.25 19.25 0 0 1 3.5 1.209 20.55 20.55 0 0 1 2.918 1.625l-2.542 4.669Zm7.931 21.842V17.282h5.752v14.047L94.08 17.24h6.336L89.077 30.37l12.046 16.465h-6.502L85.409 34.08l-3.752 3.918v8.837h-5.752Zm31.218-29.595 7.295 13.922 7.42-13.922h6.21l-10.754 19.258v10.337h-5.71v-10.42L100.871 17.24h6.252Zm24.183 29.595V17.24h10.754c3.224 0 5.919.667 8.087 2 2.167 1.307 3.793 3.085 4.877 5.336 1.084 2.223 1.625 4.697 1.625 7.42 0 3.001-.597 5.613-1.792 7.836s-2.89 3.946-5.085 5.169c-2.168 1.223-4.738 1.834-7.712 1.834h-10.754Zm19.55-14.84c0-1.917-.348-3.598-1.043-5.043-.694-1.473-1.695-2.612-3.001-3.418-1.306-.834-2.89-1.25-4.752-1.25h-5.002V41.79h5.002c1.89 0 3.488-.416 4.794-1.25 1.306-.862 2.293-2.029 2.959-3.502.695-1.5 1.043-3.181 1.043-5.043Zm10.288 14.84V17.24h13.088c1.362 0 2.612.278 3.752.834a9.275 9.275 0 0 1 3.001 2.25 9.915 9.915 0 0 1 1.959 3.168 9.483 9.483 0 0 1 .709 3.585c0 1.25-.223 2.46-.667 3.627a8.738 8.738 0 0 1-1.834 3 8.484 8.484 0 0 1-2.835 2.002l6.753 11.129h-6.336l-6.086-9.92h-5.752v9.92h-5.752Zm5.752-14.964h7.211c.723 0 1.362-.209 1.918-.625.555-.445 1-1.029 1.334-1.751.333-.723.5-1.529.5-2.418 0-.945-.195-1.764-.584-2.46-.389-.722-.889-1.291-1.5-1.708a3.23 3.23 0 0 0-1.918-.625h-6.961v9.587Zm34.436 15.172c-2.168 0-4.141-.416-5.919-1.25a14.386 14.386 0 0 1-4.544-3.376 16.518 16.518 0 0 1-2.917-4.836 15.318 15.318 0 0 1-1.043-5.544c0-1.973.362-3.848 1.084-5.627a16.203 16.203 0 0 1 3.043-4.793 14.323 14.323 0 0 1 4.585-3.335c1.779-.834 3.724-1.25 5.836-1.25 2.14 0 4.085.43 5.836 1.292a14.019 14.019 0 0 1 4.543 3.46 16.541 16.541 0 0 1 2.918 4.835 14.99 14.99 0 0 1 1.042 5.502c0 1.945-.361 3.82-1.084 5.627a15.778 15.778 0 0 1-3.043 4.794 14.006 14.006 0 0 1-4.585 3.293c-1.751.805-3.668 1.208-5.752 1.208Zm-8.587-15.005c0 1.278.195 2.514.584 3.71a10.667 10.667 0 0 0 1.667 3.209 8.694 8.694 0 0 0 2.709 2.21c1.084.527 2.307.791 3.669.791 1.389 0 2.626-.278 3.709-.834a8.348 8.348 0 0 0 2.71-2.292 10.6 10.6 0 0 0 1.625-3.21c.389-1.195.584-2.39.584-3.584a10.85 10.85 0 0 0-.625-3.669 9.688 9.688 0 0 0-1.709-3.168 7.497 7.497 0 0 0-2.71-2.209c-1.056-.556-2.251-.833-3.584-.833-1.418 0-2.668.291-3.752.875a8.028 8.028 0 0 0-2.668 2.25 10.8 10.8 0 0 0-1.667 3.169 12.064 12.064 0 0 0-.542 3.585Zm33.216-4.21v19.007h-5.753V17.24h4.586l15.297 19.508V17.282h5.753v29.553h-4.794l-15.089-19.008ZM272.55 41.79v5.044H252V17.24h20.175v5.044h-14.423v7.127h12.463v4.669h-12.463v7.711h14.798Z" fill="#BE3144"/></svg>