<svg width="130" height="28" fill="none" xmlns="http://www.w3.org/2000/svg"><circle cx="8.582" cy="10.623" r="3.377" fill="#BE3144"/><circle cx="8.582" cy="17.377" r="3.377" fill="#BE3144"/><circle cx="15.336" cy="10.623" r="3.377" fill="#BE3144"/><circle cx="15.336" cy="17.377" r="3.377" fill="#BE3144"/><path d="M30.553 11.154a3.084 3.084 0 0 0-.489-.357 4.794 4.794 0 0 0-.845-.432 7.66 7.66 0 0 0-1.071-.357 4.224 4.224 0 0 0-1.184-.17c-.702 0-1.234.132-1.597.395-.351.263-.526.633-.526 1.109 0 .363.112.651.338.864.225.213.564.395 1.015.545.45.15 1.014.313 1.69.489.878.213 1.635.476 2.274.789.652.3 1.146.701 1.485 1.202.35.489.526 1.14.526 1.955 0 .714-.132 1.327-.395 1.841a3.304 3.304 0 0 1-1.09 1.221c-.463.314-.99.545-1.578.696a8.228 8.228 0 0 1-1.879.206 9.778 9.778 0 0 1-1.992-.206 10.942 10.942 0 0 1-1.916-.583 9.174 9.174 0 0 1-1.692-.94l1.147-2.235c.112.112.313.263.6.45.29.176.64.358 1.053.545a9.45 9.45 0 0 0 1.353.451c.489.126.983.188 1.485.188.701 0 1.233-.119 1.597-.357.363-.238.545-.576.545-1.014 0-.401-.144-.714-.433-.94-.288-.225-.689-.42-1.202-.582a38.12 38.12 0 0 0-1.823-.564c-.84-.238-1.54-.501-2.104-.79-.564-.3-.984-.676-1.26-1.127-.275-.45-.413-1.014-.413-1.69 0-.915.213-1.68.64-2.293a4.018 4.018 0 0 1 1.765-1.41c.74-.325 1.56-.488 2.462-.488.626 0 1.215.069 1.766.206.564.138 1.09.32 1.579.545.488.226.927.47 1.315.733l-1.146 2.105ZM34.128 21V7.678h2.593v6.332l5.6-6.351h2.856l-5.11 5.919L45.496 21h-2.932l-4.152-5.75-1.691 1.766V21h-2.594ZM48.202 7.659l3.288 6.276 3.344-6.276h2.8l-4.848 8.681V21h-2.574v-4.698l-4.83-8.643h2.82ZM59.102 21V7.659h4.849c1.453 0 2.668.3 3.645.902a5.584 5.584 0 0 1 2.199 2.405c.488 1.002.733 2.117.733 3.345 0 1.353-.27 2.53-.809 3.532a5.704 5.704 0 0 1-2.292 2.33c-.977.551-2.136.827-3.476.827h-4.848Zm8.814-6.69c0-.864-.157-1.622-.47-2.273a3.532 3.532 0 0 0-1.353-1.54c-.589-.377-1.303-.565-2.142-.565h-2.255v8.794h2.255c.852 0 1.572-.188 2.16-.563a3.652 3.652 0 0 0 1.335-1.579c.313-.676.47-1.434.47-2.273ZM72.554 21V7.659h5.9c.614 0 1.177.125 1.69.376.527.25.978.588 1.354 1.014.388.426.682.902.883 1.428a4.27 4.27 0 0 1 .32 1.616c0 .564-.1 1.109-.301 1.635a3.938 3.938 0 0 1-.827 1.353c-.363.388-.79.689-1.278.902L83.34 21h-2.856l-2.743-4.472h-2.593V21h-2.594Zm2.593-6.746h3.25c.326 0 .614-.094.865-.282.25-.2.45-.463.601-.789a2.57 2.57 0 0 0 .225-1.09c0-.426-.087-.795-.263-1.108a2.138 2.138 0 0 0-.676-.77 1.455 1.455 0 0 0-.864-.283h-3.138v4.322Zm15.523 6.84c-.977 0-1.867-.188-2.668-.564a6.482 6.482 0 0 1-2.048-1.522 7.448 7.448 0 0 1-1.316-2.18 6.907 6.907 0 0 1-.47-2.499c0-.889.163-1.735.49-2.536a7.293 7.293 0 0 1 1.37-2.161 6.452 6.452 0 0 1 2.068-1.503 6.12 6.12 0 0 1 2.63-.564c.965 0 1.842.194 2.631.582a6.315 6.315 0 0 1 2.048 1.56 7.45 7.45 0 0 1 1.316 2.18c.313.801.47 1.628.47 2.48a6.77 6.77 0 0 1-.49 2.537 7.118 7.118 0 0 1-1.37 2.16 6.32 6.32 0 0 1-2.068 1.485 6.135 6.135 0 0 1-2.593.545Zm-3.87-6.765c0 .577.087 1.134.262 1.673.176.538.426 1.02.752 1.447a3.92 3.92 0 0 0 1.221.995c.489.239 1.04.358 1.654.358.626 0 1.184-.126 1.672-.376a3.761 3.761 0 0 0 1.221-1.034c.326-.438.57-.92.733-1.447a5.193 5.193 0 0 0 .263-1.616 4.88 4.88 0 0 0-.281-1.653 4.365 4.365 0 0 0-.77-1.428 3.378 3.378 0 0 0-1.222-.996 3.424 3.424 0 0 0-1.616-.376c-.64 0-1.203.132-1.691.395-.476.25-.877.588-1.203 1.014a4.863 4.863 0 0 0-.752 1.428 5.433 5.433 0 0 0-.244 1.616Zm14.973-1.898V21H99.18V7.659h2.066l6.897 8.794V7.678h2.593V21h-2.161l-6.802-8.569Zm21.002 6.295V21h-9.264V7.659h9.094v2.273h-6.501v3.214h5.618v2.104h-5.618v3.476h6.671Z" fill="#F5F5F5"/></svg>