<svg width="185" height="41" fill="none" xmlns="http://www.w3.org/2000/svg"><g clip-path="url(#a)"><path d="M45.875 20.157v9.922l-15.463 9.924V30.08l15.463-9.922Zm-15.463 0v9.922L14.95 40.003V30.08l15.462-9.922Zm-15.462 0v9.922L-.513 40.003V30.08l15.463-9.922Zm80.437-1.593c1.75 3.181 1.241 7.168-1.247 9.779a7.345 7.345 0 0 1-5.11 2.157 5.514 5.514 0 0 1-3.772-1.377v8.03h-3.973V15.16h3.863v1.156a5.911 5.911 0 0 1 3.889-1.438c2.605-.024 5.025 1.381 6.35 3.686Zm14.003-2.133v-1.28h3.769l-.009 15.003h-3.731v-1.28a5.448 5.448 0 0 1-4.014 1.626c-2.617.02-5.04-1.419-6.327-3.76a7.81 7.81 0 0 1-1.034-4.062c0-3.028 1.521-5.559 3.772-6.842a7.086 7.086 0 0 1 3.619-.968 5.463 5.463 0 0 1 3.955 1.563Zm44.186-1.565c2.889 0 5.049 1.126 6.478 3.407l-3.042 1.936c-.851-1.25-1.976-1.88-3.406-1.88-2.31 0-3.861 1.845-3.861 4.405 0 2.561 1.489 4.248 3.831 4.248 1.419.03 2.76-.66 3.589-1.842l2.919 1.983c-1.398 2.063-3.77 3.344-6.478 3.344-2.859 0-5.382-1.375-6.782-3.76a8.042 8.042 0 0 1-.802-6.03 7.827 7.827 0 0 1 3.632-4.81 7.982 7.982 0 0 1 3.922-1Zm22.926-.025.177.002c4.41 0 7.42 3.188 7.42 8.155.003.156-.002.313-.015.469l-.015.156h-11.222c.305 2.185 1.773 3.34 3.832 3.34a4.546 4.546 0 0 0 3.577-1.626l.082-.1 2.789 1.884-.087.124c-1.463 2.046-3.738 3.186-6.361 3.186-2.281 0-4.319-.869-5.627-2.279a7.947 7.947 0 0 1-2.098-5.467c0-2.906 1.306-5.37 3.681-6.78a7.62 7.62 0 0 1 3.69-1.062l.177-.002Zm-113.401.042c2.008 0 3.467.688 4.318 2.063 1.612-1.376 3.376-2.063 5.293-2.063 3.438-.005 5.293 2.065 5.293 5.869v9.398H74.05v-9.086c0-1.842-.85-2.749-2.493-2.749-1.22 0-2.287.531-3.202 1.593v10.246h-3.946v-9.09c0-1.842-.821-2.749-2.464-2.749-1.246 0-2.31.562-3.222 1.687v10.152h-3.985V15.16h3.71v1.41a7.012 7.012 0 0 1 4.653-1.687Zm61.911-.005v3.874a3.644 3.644 0 0 0-1.095-.124 4.458 4.458 0 0 0-3.377 1.717v9.81h-3.982V15.16h3.71v1.374c1.185-1.22 2.493-1.656 4.744-1.656Zm8.722-4.716v4.998h3.284v3.374h-3.284v11.62h-3.957v-11.62h-3.068V15.16h3.068v-4.998h3.957Zm9.602 4.998v14.994h-3.984V15.16h3.984Zm23.315-7.467v22.461h-3.953V7.694h3.953Zm-60.679 10.622c-2.129 0-3.952 1.687-3.952 4.373 0 2.685 1.793 4.344 3.923 4.344a4.16 4.16 0 0 0 3.284-1.438v-5.81a4.263 4.263 0 0 0-3.255-1.469Zm-17.425 0a4.31 4.31 0 0 0-3.344 1.53v5.718a4.178 4.178 0 0 0 3.203 1.469c2.236 0 4.03-1.657 4.03-4.405 0-2.655-1.83-4.312-3.889-4.312Zm88.23-.129c-1.876 0-3.169.927-3.734 2.639l-.036.112h7.267c-.476-1.803-1.593-2.71-3.38-2.747l-.117-.002v-.002ZM30.412.306v9.925L14.95 20.155V10.23L30.412.307Zm15.463 0v9.925l-15.463 9.924V10.23L45.875.307Zm-30.925 0v9.925L-.513 20.155V10.23L14.95.307Zm128.478 8.731v4.123h-4.168V9.038h4.168Z" fill="#393939"/></g><defs><clipPath id="a"><path fill="#fff" transform="translate(-.513 .307)" d="M0 0h184.612v39.999H0z"/></clipPath></defs></svg>