<svg width="185" height="39" fill="none" xmlns="http://www.w3.org/2000/svg"><g clip-path="url(#a)"><path d="M94.444 23.158c0 2.054-.684 3.797-2.054 5.167-1.806 1.806-4.732 2.802-8.28 2.74-2.554-.063-5.106-.685-6.538-1.557l.934-5.105c1.556.872 4.233 1.743 6.226 1.743 1.68 0 2.74-.747 2.74-1.992 0-1.12-.81-1.868-2.803-2.864-3.175-1.557-4.731-3.549-4.731-5.915 0-4.607 3.984-7.783 9.899-7.783 3.113 0 5.168.748 6.288 1.495l-.933 5.043c-.872-.685-3.176-1.619-5.666-1.619-1.744 0-2.864.747-2.864 1.93 0 .872.871 1.619 2.677 2.553 2.428 1.245 5.105 3.05 5.105 6.164Zm90.465 4.732c.125-1.557-.996-2.802-2.553-2.802-1.556 0-2.926 1.245-3.05 2.802-.125 1.431.871 2.801 2.552 2.801 1.557 0 2.927-1.245 3.051-2.801Zm-.373 0c-.125 1.307-1.308 2.428-2.678 2.428-1.307 0-2.241-1.059-2.116-2.366.124-1.308 1.307-2.428 2.677-2.428 1.245 0 2.179 1.058 2.117 2.366Zm-1.931.373.436 1.307h-.436l-.435-1.245h-.623l-.249 1.245h-.436l.623-3.3h1.058c.498 0 .872.374.872.81.062.436-.249.996-.81 1.183Zm0-1.619h-.747l-.249 1.246h.685c.374 0 .685-.312.747-.685.063-.25-.124-.56-.436-.56Zm-12.14-.747c2.801 0 5.23-.685 7.845-2.179l-1.059 5.604c-3.175 1.618-6.911 1.805-8.343 1.805-6.226 0-9.713-3.424-9.713-9.464 0-3.486 1.308-6.973 3.487-9.526 2.366-2.801 5.915-4.42 9.588-4.42 4.67 0 7.845 2.74 7.845 6.786 0 1.868-.623 3.425-1.805 4.608-2.242 2.179-7.783 3.424-12.764 2.428-.311 2.74 1.806 4.358 4.919 4.358Zm-4.296-8.779c3.922.063 6.101-.373 7.097-1.307 1.059-1.059.685-3.238-1.867-3.238-2.864 0-4.732 2.366-5.23 4.545Zm-26.15.934-2.428 12.577h-6.351l.81-4.358c-.872 2.677-3.051 4.856-6.724 4.856-4.421 0-6.413-3.922-6.413-7.845 0-4.483 1.743-8.903 4.669-11.83 2.491-2.49 5.666-3.797 9.215-3.797 6.288.062 8.343 4.296 7.222 10.397Zm-6.164-2.864c-.062-1.556-.934-2.428-2.366-2.428-3.113 0-5.852 5.417-5.852 9.152 0 2.366.872 3.798 2.366 3.798 2.428 0 4.545-2.552 5.23-6.226.311-1.245.685-3.3.622-4.296ZM37.6 18.052 35.172 30.63h-6.35l.809-4.358c-.872 2.677-3.05 4.856-6.724 4.856-4.42 0-6.413-3.922-6.413-7.845 0-4.483 1.743-8.903 4.67-11.83 2.49-2.49 5.665-3.797 9.214-3.797 6.288.062 8.405 4.296 7.222 10.397Zm-6.1-2.864c-.063-1.556-.934-2.428-2.366-2.428-3.113 0-5.853 5.417-5.853 9.152 0 2.366.872 3.798 2.366 3.798 2.428 0 4.545-2.552 5.23-6.226.25-1.245.623-3.3.623-4.296Zm86.978 1.059c0 5.479-2.615 11.082-7.347 13.573-1.743.933-3.424 1.307-4.856 1.307-2.366 0-3.674-.872-4.421-2.241l-1.681 8.965H93.51l5.666-29.76h5.853l-.685 3.61c1.681-2.427 4.109-4.046 6.911-4.046 4.358 0 7.222 3.362 7.222 8.592Zm-6.911.498c0-1.059-.249-3.611-2.677-3.611-2.491 0-4.607 2.801-5.417 7.097-.311 1.495-1.058 5.853 1.992 5.853 3.487 0 6.102-4.981 6.102-9.34ZM9.583 13.07l.934-4.98H4.664L.306 31.065h6.662L8.774 21.6c1.058-5.603 4.233-7.845 8.84-7.098l1.308-6.848c-3.985-.436-7.72 1.805-9.339 5.416Zm53.482 17.56 2.304-12.079L70.1 30.63h7.16l-4.918-12.14 8.903-10.4h-7.284l-8.592 10.273L68.669.93h-6.6l-5.666 29.76h6.662v-.062ZM155.77 7.717c-8.343 0-14.631 6.102-14.631 14.195 0 5.604 3.736 9.215 9.463 9.215 2.491 0 4.857-.436 6.413-1.183l1.059-5.603c-2.055.996-3.674 1.432-5.604 1.432-2.117 0-4.358-1.183-4.358-4.608 0-3.984 2.802-8.094 7.596-8.094 1.432 0 2.615.312 3.673.872l1.059-5.417c-1.246-.498-2.989-.809-4.67-.809Zm-102.419 0c-8.343 0-14.631 6.102-14.631 14.195 0 5.604 3.736 9.215 9.464 9.215 2.49 0 4.856-.436 6.412-1.183l1.059-5.603c-2.055.996-3.673 1.432-5.603 1.432-2.117 0-4.359-1.183-4.359-4.608 0-3.984 2.802-8.094 7.596-8.094 1.432 0 2.615.312 3.673.872l1.059-5.417c-1.245-.498-2.989-.809-4.67-.809Z" fill="#393939"/></g><defs><clipPath id="a"><path fill="#fff" transform="translate(.306 .93)" d="M0 0h184.612v37.139H0z"/></clipPath></defs></svg>