<svg width="160" height="38" fill="none" xmlns="http://www.w3.org/2000/svg"><path d="M.81 22.426h5.534c.057 1.109.46 1.926 1.21 2.451.807.525 1.902.817 3.228.817.98 0 1.787-.175 2.536-.584.634-.408.98-.875.98-1.575 0-.992-1.153-1.75-3.4-2.218a31.72 31.72 0 0 1-2.191-.466c-2.882-.7-4.784-1.576-5.764-2.568-1.095-.992-1.614-2.276-1.614-3.968 0-2.101.807-3.793 2.363-5.194 1.614-1.284 3.747-1.867 6.34-1.867 2.825 0 5.073.642 6.744 1.867 1.556 1.342 2.421 3.151 2.536 5.31h-3.458c-1.037 0-1.787-.466-2.363-1.4-.23-.234-.461-.409-.634-.642-.634-.467-1.556-.759-2.651-.759-1.096 0-1.903.175-2.421.467-.461.35-.75.817-.75 1.46 0 .874 1.384 1.633 4.208 2.217.346.116.634.175.865.233.23.058.46.058.691.058 2.767.7 4.669 1.518 5.764 2.451 1.038.992 1.556 2.276 1.556 3.969 0 2.392-.864 4.26-2.593 5.602-1.614 1.225-4.035 1.809-7.32 1.809-3.055 0-5.36-.642-6.917-1.868C1.733 26.744.926 24.935.926 22.543v-.117H.81Zm33.719-8.461c-.807-1.168-1.902-1.751-3.343-1.751-1.499 0-2.651.525-3.458 1.634-.807 1.109-1.21 2.626-1.21 4.493v11.321h-5.534V1.418h2.767c.749 0 1.383.292 1.96.817a2.8 2.8 0 0 1 .806 1.984v6.478c.98-1.634 2.363-2.685 4.15-3.093 1.787-.409 3.459-.35 5.13.35 1.499.642 2.767 1.692 3.804 3.093 1.038 1.4 1.556 3.384 1.556 5.894v12.721H35.74v-11.32c0-.818-.058-1.576-.231-2.277-.173-.642-.519-1.342-.98-2.1Zm7.781-6.128h2.94c.75 0 1.383.292 1.96.817.518.526.806 1.226.806 1.984v19.024h-5.648V7.837h-.058Zm12.45 26.96c0 .759-.288 1.4-.807 1.985a2.728 2.728 0 0 1-1.96.817h-2.766V17.174c0-3.851 1.095-6.419 3.343-7.82 2.19-1.4 4.611-2.1 7.205-2.1 1.325 0 2.709.233 4.092.758 1.384.526 2.479 1.284 3.286 2.276 1.613 2.16 2.42 4.844 2.42 8.228 0 3.443-.806 6.244-2.42 8.345-1.614 2.1-3.69 3.093-6.225 3.093-1.326 0-2.536-.233-3.574-.759-1.095-.525-1.96-1.4-2.594-2.567v8.17Zm9.28-16.106c0-2.159-.403-3.793-1.21-4.901-.807-1.167-1.96-1.751-3.459-1.751-1.44 0-2.593.584-3.4 1.75-.75 1.051-1.153 2.685-1.153 4.902 0 2.101.403 3.618 1.21 4.669.807 1.167 1.96 1.75 3.459 1.75 1.383 0 2.536-.583 3.343-1.75.807-1.109 1.21-2.684 1.21-4.669Zm12.047 16.106c0 .759-.289 1.4-.807 1.985a2.728 2.728 0 0 1-1.96.817h-2.767V17.174c0-3.851 1.095-6.419 3.343-7.82 2.19-1.4 4.611-2.1 7.205-2.1a11.5 11.5 0 0 1 4.093.758c1.383.526 2.478 1.284 3.285 2.276 1.614 2.16 2.42 4.844 2.42 8.228 0 3.443-.806 6.244-2.42 8.345-1.614 2.1-3.689 3.093-6.225 3.093-1.326 0-2.536-.233-3.574-.759-1.095-.525-1.96-1.4-2.593-2.567v8.17Zm9.222-16.106c0-2.159-.404-3.793-1.21-4.901-.808-1.167-1.96-1.751-3.459-1.751-1.44 0-2.594.584-3.4 1.75-.75 1.051-1.153 2.685-1.153 4.902 0 2.101.403 3.618 1.21 4.669.807 1.167 1.96 1.75 3.458 1.75 1.384 0 2.536-.583 3.343-1.75.807-1.109 1.21-2.684 1.21-4.669Zm20.289 9.92c-1.153.584-2.364.993-3.632 1.11-1.268.116-2.363.233-3.343.233-1.96 0-3.63-.525-5.13-1.576-1.44-1.05-2.19-2.859-2.19-5.31 0-2.276.634-3.968 1.96-4.902 1.326-.992 2.997-1.634 5.072-1.984.288 0 .577-.058.98-.117.404-.058.807-.175 1.326-.233 2.363-.35 3.573-1.05 3.573-2.16 0-.816-.403-1.341-1.268-1.575-.864-.233-1.614-.35-2.305-.35-.75 0-1.441.117-2.018.35a2.485 2.485 0 0 0-1.325 1.226H91.88c.23-1.693.98-3.093 2.248-4.202 1.44-1.284 3.516-1.867 6.225-1.867 2.997 0 5.302.525 6.801 1.575 1.556 1.11 2.363 2.626 2.363 4.61v7.47c0 2.217-.403 3.91-1.153 5.135-.749 1.109-1.671 1.984-2.766 2.568Zm-1.268-10.095c-.75.409-1.787.759-3.171 1.05l-1.844.41c-.98.291-1.671.641-2.133 1.05a3.19 3.19 0 0 0-.576 1.809c0 .817.23 1.459.75 1.984.46.466 1.21.642 2.132.642 1.499 0 2.709-.409 3.574-1.343.864-.875 1.325-2.1 1.325-3.618v-1.984h-.057Zm12.104-14.88v6.594c.576-1.05 1.441-1.867 2.593-2.568.98-.525 2.133-.817 3.574-.817 2.536 0 4.611 1.05 6.225 3.21 1.614 2.159 2.421 4.902 2.421 8.286 0 3.385-.807 6.128-2.421 8.287-.807 1.05-1.902 1.809-3.285 2.276-1.384.466-2.767.7-4.093.7a13.6 13.6 0 0 1-7.205-2.043c-2.19-1.342-3.343-3.968-3.343-7.878V.835h2.767c.749 0 1.383.291 1.96.817.519.525.807 1.225.807 1.984Zm9.222 14.413c0-1.984-.404-3.5-1.21-4.61-.807-1.167-1.903-1.75-3.344-1.75-1.498 0-2.651.525-3.458 1.634-.807 1.167-1.21 2.684-1.21 4.668 0 2.276.403 3.968 1.153 5.019.806 1.167 1.959 1.75 3.4 1.75 1.499 0 2.652-.583 3.459-1.75.806-1.11 1.21-2.743 1.21-4.96Zm6.571-16.63h2.939c.75 0 1.384.233 1.96.758.519.525.807 1.167.807 1.926v25.56h-5.649V1.417h-.057Zm22.421 21.474h4.035c-.576 2.276-1.729 4.026-3.401 5.252-1.671 1.284-3.804 1.867-6.34 1.867-3.055 0-5.476-.992-7.205-3.034-1.729-1.984-2.594-4.785-2.594-8.462 0-3.501.865-6.244 2.536-8.228 1.73-2.042 4.15-3.034 7.205-3.034 3.228 0 5.764.992 7.551 2.976 1.729 2.042 2.594 4.843 2.594 8.461v.934c0 .292 0 .467-.058.584h-14.006c.058 1.692.461 2.976 1.21 3.793.692.875 1.729 1.342 3.17 1.342.923 0 1.73-.175 2.364-.584.173-.058.288-.175.461-.291l.461-.467c.058-.175.23-.409.634-.642.23-.35.749-.467 1.383-.467Zm-9.741-6.42h8.243c-.116-1.458-.462-2.567-1.153-3.267-.692-.759-1.729-1.167-2.997-1.167-1.211 0-2.191.408-2.94 1.167-.692.759-1.095 1.867-1.153 3.268Z" fill="#393939"/><path d="M42.31 1.418h2.94c.75 0 1.383.292 1.96.817a2.8 2.8 0 0 1 .806 1.984V5.97h-5.648V1.418h-.058Z" fill="#238189"/></svg>