<svg width="185" height="46" fill="none" xmlns="http://www.w3.org/2000/svg"><g clip-path="url(#a)" fill="#393939"><path d="M75.102 17.31c5.508 0 6.741 3.23 6.741 6.959v3.714h-9.598v.89c.036 2.066.775 2.883 3.389 2.883a17.906 17.906 0 0 0 5.257-.817l.672 3.268a18.348 18.348 0 0 1-6.32 1.1c-5.398 0-7.273-2.519-7.273-6.686v-4.568c0-3.654 1.624-6.744 7.132-6.744Zm36.194-.008c5.398 0 6.993 1.916 6.993 6.246l-.015 11.402h-3.53l-.317-1.174a9.357 9.357 0 0 1-5.117 1.53c-3.138 0-4.482-2.169-4.482-5.147 0-3.513 1.521-4.865 5.014-4.865h4.127V23.48c0-1.916-.531-2.592-3.286-2.592a23.866 23.866 0 0 0-4.762.535l-.532-3.305a22.374 22.374 0 0 1 5.907-.817Zm28.612 0c5.892 0 7.479 3.268 7.479 6.818v4.368c.008 3.55-1.587 6.818-7.479 6.818-5.907 0-7.48-3.268-7.48-6.818V24.12c0-3.55 1.588-6.818 7.48-6.818ZM71.58 11.3v3.944h-6.57V34.95h-4.43l-.015-19.706H54V11.3h17.58Zm56.684-1.419a13.61 13.61 0 0 1 3.692.498l-.451 3.335a12.533 12.533 0 0 0-2.473-.282c-1.691 0-1.942.743-1.942 2.057v2.17h4.378l-.243 3.446h-4.128V34.95h-4.304V21.105h-2.755v-3.447h2.755v-2.414c0-3.587 1.661-5.363 5.471-5.363Zm45.726 9.27a16.801 16.801 0 0 1 6.919-1.85c2.857 0 3.883 2.021 3.883 5.11V34.95h-4.304V22.88c0-.921-.392-1.382-1.374-1.382a11.35 11.35 0 0 0-4.481 1.486V34.95h-4.335V22.88c0-.921-.391-1.382-1.373-1.382a11.83 11.83 0 0 0-4.482 1.486V34.95h-4.304V17.658h3.285l.421 1.486a17.132 17.132 0 0 1 6.896-1.842 3.259 3.259 0 0 1 3.249 1.85Zm-81.079-1.85.443 3.982a33.754 33.754 0 0 0-4.57 2.518v11.141h-4.305V17.658h3.633l.28 1.916a19.255 19.255 0 0 1 4.52-2.272Zm10.529 0 .428 3.982a33.763 33.763 0 0 0-4.555 2.518v11.141h-4.305V17.658h3.633l.28 1.916a19.267 19.267 0 0 1 4.519-2.272Zm54.602 0 .428 3.982a33.7 33.7 0 0 0-4.556 2.518v11.141h-4.304V17.658h3.632l.281 1.916a19.232 19.232 0 0 1 4.519-2.272Zm-44.073 11.112h-3.175c-1.41 0-1.801.394-1.801 1.701 0 1.308.391 1.738 1.727 1.738a6.746 6.746 0 0 0 3.249-.891v-2.548Zm25.939-7.42c-2.297 0-3.175 1.033-3.175 2.971v4.65c0 1.953.886 2.97 3.175 2.97 2.289 0 3.175-1.032 3.175-2.97v-4.635c0-1.953-.879-2.986-3.175-2.986Zm-64.77-.14c-2.118 0-2.857 1.135-2.857 2.77v.876h5.472v-.876c0-1.635-.495-2.77-2.614-2.77Zm-48.081 8.942 12.11-7.027V8.693l-12.11 7.041v14.06ZM13.619 8.693l12.11 7.041v14.06l-12.11-7.033V8.693ZM.181 14.91l12.109 7.034V7.876L.18.842V14.91Zm13.438 23.464 12.11 7.034V31.34l-12.11-7.034"/></g><defs><clipPath id="a"><path fill="#fff" transform="translate(.18 .842)" d="M0 0h184.612v44.615H0z"/></clipPath></defs></svg>