<svg width="147" height="38" fill="none" xmlns="http://www.w3.org/2000/svg"><g clip-path="url(#a)"><path d="M116.128 11.887v25.87h-9.264v-25.87h9.264Zm11.945-.05 4.232 6.148 4.345-6.149h9.549l-9.263 12.297L147 37.706h-10.235l-5.089-7.019-5.089 7.019h-9.55l10.007-13.167-9.206-12.703h10.235Zm-33.33-.818c6.963 0 9.05 4.833 9.091 10.163v16.402h-9.263V23.733l-.001-.208-.004-.204-.005-.2-.006-.196a26.754 26.754 0 0 0-.004-.097l-.01-.19a16.89 16.89 0 0 0-.01-.186l-.014-.181-.008-.09-.016-.175-.02-.172c-.262-2.23-1.12-3.39-3.333-3.39-2.624 0-3.761 1.845-4.044 4.784l-.018.21c-.034.422-.052.866-.054 1.329v12.819H77.76V23.628l-.002-.104-.003-.204-.005-.2-.007-.196-.01-.192a13.446 13.446 0 0 0-.005-.095l-.012-.186-.014-.181-.017-.178c-.24-2.4-1.115-3.648-3.413-3.648-3 0-4.095 2.501-4.117 6.322v12.819h-9.263v-25.87h9.263v3.887c1.372-2.842 4.117-4.583 7.948-4.583 4.518 0 6.862 2.088 7.948 5.105 1.373-2.9 4.403-5.105 8.692-5.105Zm-48.93-.817c8.436 0 12.947 5.799 13.037 12.725v2.82H40.954c.23 3.19 2.516 4.698 5.318 4.698 2.484 0 4.075-.847 4.941-2.821l.034-.079 7.433.696c-1.315 5.917-6.004 9.223-12.75 9.223-8.178 0-14.01-4.989-14.01-13.225 0-8.178 5.947-14.037 13.895-14.037ZM17.332.806c9.343 0 13.986 4.477 13.986 11.629 0 5.349-3.267 8.837-7.68 9.419 3.725.756 5.903 2.907 6.304 7.151l.059.78.05.73.044.683.03.514.033.608.017.346.024.55.02.52.01.3.012.479.012.547.004.265.007.767.002.8v.478h-9.634c0-.202.001-.396.004-.587l.006-.377.016-.915.005-.306.002-.317v-.471l-.003-.323-.003-.253-.008-.354-.012-.376-.015-.399-.02-.425-.011-.224-.02-.349-.023-.366-.035-.518-.03-.412c-.267-3.893-1.822-4.97-4.666-5.101l-.186-.008-.189-.004a15.155 15.155 0 0 0-.192-.003H0v-7.616h15.612c4.127 0 6.19-1.274 6.19-4.646 0-2.966-2.063-4.763-6.19-4.763H0V.806h17.331Zm-7.144 30.888c1.264 0 1.793.707 1.982 1.383l.02.078.01.039.015.077.013.076.006.038.01.074.007.072.002.036.004.07.002.034v3.701H0v-5.678h10.187ZM45.7 16.931c-2.319 0-3.63 1.129-4.256 2.782l-.047.128-.044.13a6.452 6.452 0 0 0-.117.402l-.034.138a7.423 7.423 0 0 0-.06.28l-.027.142a8.265 8.265 0 0 0-.013.072l-.023.145-.01.073h8.977c-.114-2.32-1.6-4.292-4.346-4.292Zm70.486-15.716V9.45h-9.378V1.215h9.378Z" fill="#121212"/></g><defs><clipPath id="a"><path fill="#fff" transform="translate(0 .806)" d="M0 0h147v37H0z"/></clipPath></defs></svg>