<svg width="185" height="39" fill="none" xmlns="http://www.w3.org/2000/svg"><g clip-path="url(#a)"><path d="M38.608 27.272 28.192 38.648H9.024l10.313-11.376h19.27ZM72.837 9.198c7.022 0 9.447 4.455 9.622 7.87h-6.13c-.136-1.467-1.261-2.798-3.531-2.798-2.057 0-3.22.984-3.22 2.276 0 3.916 12.978 0 12.978 9.567 0 4.185-3.589 7.483-9.933 7.483-7.372-.019-9.875-3.76-10.185-8.12h6.44c.098 1.563 1.262 3.029 3.9 3.029 2.425 0 3.667-.85 3.667-2.142 0-3.915-13.017-.23-13.017-9.47 0-4.223 3.627-7.695 9.409-7.695Zm82.994 0c7.294 0 10.748 5.111 11.194 9.084h-6.538c-.485-2.006-2.367-3.472-4.695-3.472-3.395 0-5.374 2.662-5.374 6.577 0 3.916 1.979 6.578 5.374 6.578 2.328 0 4.21-1.466 4.695-3.472h6.538c-.446 3.954-3.9 9.084-11.194 9.084-6.81 0-11.776-5.246-11.776-12.19 0-6.943 4.966-12.19 11.776-12.19Zm-49.587-.02c6.945 0 11.64 5.247 11.64 12.151 0 1.023-.097 1.871-.097 1.871h-17.014c.446 3.202 2.503 4.938 5.684 4.938 1.921 0 3.764-.849 4.521-2.546h6.402c-1.397 4.726-5.685 7.966-11.097 7.966-6.946 0-11.815-5.073-11.815-12.229 0-6.904 4.83-12.15 11.776-12.15ZM90.879 4.3v5.42h4.675v5.15H90.88v18.168h-6.363V4.299h6.363Zm42.196 4.899c5.645 0 8.633 3.742 8.633 9.296v14.543h-6.364V19.189c0-2.72-1.164-4.59-3.977-4.59-3.084 0-4.792 1.967-4.792 5.072v13.347h-6.363v-23.3h5.878v2.855c1.067-2.006 3.492-3.375 6.985-3.375Zm42.68.52v23.319h-6.364V9.719h6.364Zm9.758-7.946v31.265h-6.363V1.772h6.363ZM50.9 13.79 40.489 25.165H.9l10.41-11.376H50.9Zm55.266.482c-2.89 0-4.772 1.735-5.315 4.397h10.65c-.446-2.623-2.367-4.397-5.335-4.397ZM42.775.306 32.406 11.682H13.192L23.576.307h19.199Zm129.779 0c2.231 0 3.841 1.6 3.841 3.818s-1.61 3.78-3.841 3.78c-2.212 0-3.842-1.542-3.842-3.78 0-2.218 1.611-3.818 3.842-3.818Z" fill="#393939"/></g><defs><clipPath id="a"><path fill="#fff" transform="translate(.9 .307)" d="M0 0h184.612v38.461H0z"/></clipPath></defs></svg>