<svg width="185" height="41" fill="none" xmlns="http://www.w3.org/2000/svg"><g clip-path="url(#a)"><path d="M19.275 3.452a.932.932 0 0 1 .132 1.27.838.838 0 0 1-1.214.139c-2.25-1.893-4.126-2.517-5.282-1.9-1.346.719-1.868 3.03-1.596 6.255l.04.435c.024.22.05.444.08.672l.064.461c.08.54.179 1.097.296 1.672a43.14 43.14 0 0 1 5.198-.506 49.03 49.03 0 0 1 2.414-3l.407-.46a35.715 35.715 0 0 1 3.041-3.02l.401-.343c3.664-3.08 7.075-4.299 9.28-2.8 1.921 1.304 2.436 4.259 1.723 8.219-.089.49-.54.813-1.009.72-.468-.092-.777-.565-.688-1.055.597-3.317.204-5.574-.966-6.368-1.52-1.034-4.346.156-7.532 2.933l-.355.315a30.8 30.8 0 0 0-.538.497l-.362.347a37.53 37.53 0 0 0-1.095 1.114l-.367.396-.185.202-.368.412-.37.425-.369.435c-.123.147-.246.295-.369.446l-.368.457-.072.09a55.61 55.61 0 0 1 2.619.08l.343.02.684.045c.567.042 1.127.092 1.68.15l.661.075c.11.012.219.026.328.04l.65.085c.538.074 1.068.157 1.589.247l.62.111.613.119.602.125c1.994.43 3.826.975 5.44 1.613l.479.194c4.24 1.774 6.854 4.215 6.72 6.914-.11 2.23-2.022 4.072-5.224 5.392-.444.183-.945-.045-1.12-.51-.175-.464.043-.989.487-1.172 2.641-1.088 4.066-2.461 4.133-3.804.085-1.72-1.88-3.498-5.153-4.932l-.407-.174c-.275-.115-.56-.227-.852-.337l-.444-.162c-.15-.054-.303-.107-.457-.159l-.468-.154-.479-.15-.243-.073-.496-.143a36.349 36.349 0 0 0-.252-.07l-.51-.135a40.456 40.456 0 0 0-1.592-.376l-.55-.114a50.676 50.676 0 0 0-.277-.055l-.563-.106-.57-.1a56.008 56.008 0 0 0-.289-.047l-.582-.09a49.013 49.013 0 0 0-.59-.084l-.598-.077-.605-.07a38.07 38.07 0 0 0-.919-.094l-.62-.053a49.84 49.84 0 0 0-.627-.046l-.632-.038-.633-.03-.627-.023a49.564 49.564 0 0 0-2.155-.017l-.493.01-.194.269-.36.512-.36.522a55.56 55.56 0 0 0-1.572 2.457l-.332.558a55.162 55.162 0 0 0-1.015 1.8l.09.227.235.58.121.291.248.585.258.587.266.589.275.59.285.593.29.588.296.58.3.572.15.282.305.558c.102.185.205.368.308.55l.31.539.314.53.316.52.319.51c.266.42.534.83.804 1.23l.324.472c.216.312.434.616.65.913l.327.439.327.427.163.21.326.408.326.397c.326.39.65.763.973 1.115l.321.345.32.332c.16.163.318.32.475.472l.314.298c.157.145.312.285.466.419l.307.261c2.085 1.736 3.932 2.438 5.158 1.783 1.152-.615 1.702-2.409 1.661-4.953l-.01-.388c-.006-.13-.012-.263-.02-.398l-.028-.409c-.01-.138-.023-.277-.037-.419l-.046-.429a26.848 26.848 0 0 0-.026-.218l-.06-.443-.067-.453-.076-.461a33.172 33.172 0 0 0-.23-1.19l-.108-.49-.116-.497-.06-.252-.13-.507-.138-.515a47.092 47.092 0 0 0-.072-.26l-.151-.523-.16-.529a47.354 47.354 0 0 0-.255-.804l-.182-.543-.19-.547c-.13-.366-.264-.735-.405-1.106l-.216-.56-.225-.562a49.498 49.498 0 0 0-.115-.282l-.238-.567-.246-.57a58.09 58.09 0 0 0-.126-.285l-.26-.573a56.161 56.161 0 0 0-.132-.287c-.209-.448-.03-.99.398-1.208a.847.847 0 0 1 1.155.416l.286.624c.094.208.186.416.277.623l.268.62c.262.619.511 1.234.745 1.844l.23.608.11.303.215.603.104.3.2.595c.13.396.253.788.37 1.177l.17.58c2.036 7.122 1.775 12.915-1.28 14.545-2.47 1.319-5.973-.513-9.499-4.376l-.365-.407a34.082 34.082 0 0 1-.729-.856l-.364-.449a44.732 44.732 0 0 1-2.86-4.048l-.347-.56a57.36 57.36 0 0 1-2.49-4.523l-.158-.32a60.488 60.488 0 0 1-.308-.643l-.3-.642a59.258 59.258 0 0 1-.676-1.533l-.14.29-.127.27-.249.538-.239.535-.23.53-.11.264-.215.523-.104.26-.2.515-.096.255-.185.507-.09.25-.17.498-.16.49c-.078.244-.152.485-.222.722l-.135.473-.125.463-.06.23-.109.45a25.15 25.15 0 0 0-.229 1.09l-.073.418c-.49 2.966-.17 5.153 1.04 5.976 1.22.828 3.482.198 6.273-1.91a.839.839 0 0 1 1.205.203c.28.405.192.97-.194 1.262-3.308 2.499-6.232 3.313-8.224 1.961-2.406-1.634-2.575-5.956-.974-11.332l.167-.541c.114-.363.237-.73.367-1.102l.2-.56c.276-.75.582-1.516.917-2.292l.257-.585.267-.588c.341-.736.707-1.48 1.098-2.23a93.792 93.792 0 0 1-.154-.415l-.223-.62a48.914 48.914 0 0 1-.79-2.435l-.171-.595a39.868 39.868 0 0 1-.297-1.12l-.317.068-.47.108-.457.114-.225.058-.44.122-.43.126c-.14.043-.279.086-.415.131l-.403.136c-.132.046-.262.093-.39.14l-.377.146c-2.588 1.03-4.164 2.384-4.237 3.858-.067 1.343 1.214 2.863 3.733 4.232.423.23.588.776.368 1.219a.845.845 0 0 1-1.164.385c-3.055-1.66-4.773-3.7-4.662-5.93.155-3.11 3.906-5.485 9.486-6.683C8.955 7.13 9.53 2.737 12.126 1.35c1.918-1.025 4.425-.19 7.149 2.1Zm113.24 3.234c8.348 0 13.822 6.966 13.822 14.837v.084c0 7.872-5.553 14.92-13.901 14.92-8.349 0-13.824-6.966-13.824-14.838v-.082c0-7.872 5.553-14.92 13.903-14.92Zm27.919.371c.434 0 .749.248 1.024.62l10.752 16.567 10.752-16.568c.236-.371.591-.619 1.023-.619h.198c.55 0 1.023.496 1.023 1.072v26.995c0 .578-.473 1.073-1.023 1.073-.552 0-1.024-.495-1.024-1.073v-24.15l-10.122 15.414c-.236.371-.512.536-.866.536-.355 0-.631-.165-.866-.536l-10.122-15.415v24.193c0 .577-.433 1.031-.984 1.031-.552 0-.985-.454-.985-1.03V8.128c0-.576.472-1.072 1.024-1.072h.196Zm-51.351.124c.512 0 .946.453.946.989s-.434.99-.946.99h-8.822v25.966c0 .576-.472 1.071-1.024 1.071-.55 0-1.024-.495-1.024-1.072V9.16h-8.822c-.511 0-.945-.452-.945-.99 0-.535.433-.988.945-.988h19.692Zm-40.484-.289c.709 0 1.103.413 1.378 1.032l11.736 26.624c.119.248.158.454.158.66a.989.989 0 0 1-.985.989c-.472 0-.827-.37-1.024-.825l-3.229-7.419H60.368l-3.23 7.461c-.197.494-.512.783-.985.783-.512 0-.945-.412-.945-.907 0-.165.04-.412.159-.66L67.14 7.925c.276-.62.67-1.032 1.38-1.032h.078Zm63.837 1.731c-6.814 0-11.697 5.77-11.697 12.9v.084c0 7.13 4.962 12.982 11.776 12.982 6.812 0 11.696-5.77 11.696-12.9v-.082c0-7.13-4.963-12.983-11.775-12.983Zm-63.916.702-7.286 16.691h14.532L68.52 9.326ZM24.007 20.262c.287 1.387-.556 2.755-1.882 3.055-1.326.3-2.633-.582-2.92-1.97-.286-1.388.556-2.755 1.882-3.055 1.326-.3 2.633.582 2.92 1.97Zm-8.36-6.42-.037.002a41.11 41.11 0 0 0-.474.038l-.562.05-.553.057-.274.032-.54.066-.267.036-.526.077-.21.033.075.288c.115.44.24.887.375 1.34l.166.546.087.276.18.555c.05.15.1.3.152.45.273-.475.556-.953.848-1.43l.187-.302c.45-.726.908-1.43 1.373-2.114Z" fill="#393939"/></g><defs><clipPath id="a"><path fill="#fff" transform="translate(.594 .919)" d="M0 0h184.612v39.999H0z"/></clipPath></defs></svg>