<svg width="275" height="34" viewBox="0 0 275 34" fill="none" xmlns="http://www.w3.org/2000/svg">
<circle cx="19.2348" cy="10.8431" r="7.49198" fill="#DF8928"/>
<circle cx="19.2348" cy="25.8269" r="7.49198" fill="#DF8928"/>
<circle cx="34.2188" cy="10.8431" r="7.49198" fill="#DF8928"/>
<circle cx="34.2188" cy="25.8269" r="7.49198" fill="#DF8928"/>
<path d="M67.9736 10.993C67.7791 10.7985 67.4178 10.5345 66.8898 10.201C66.3896 9.86757 65.7644 9.548 65.0141 9.24232C64.2916 8.93665 63.4996 8.67266 62.6381 8.45034C61.7767 8.20025 60.9013 8.0752 60.0121 8.0752C58.4559 8.0752 57.2749 8.36698 56.469 8.95054C55.691 9.53411 55.3019 10.3539 55.3019 11.4098C55.3019 12.2157 55.552 12.8549 56.0522 13.3273C56.5524 13.7997 57.3027 14.2026 58.3031 14.5361C59.3035 14.8695 60.554 15.2308 62.0546 15.6198C63.9998 16.0922 65.681 16.6758 67.0982 17.3705C68.5433 18.0375 69.6409 18.9267 70.3912 20.0382C71.1693 21.122 71.5583 22.567 71.5583 24.3733C71.5583 25.9572 71.2665 27.3189 70.683 28.4582C70.0994 29.5698 69.2935 30.4729 68.2654 31.1676C67.2372 31.8624 66.0701 32.3764 64.764 32.7099C63.4579 33.0156 62.0685 33.1684 60.5957 33.1684C59.1229 33.1684 57.6501 33.0156 56.1773 32.7099C54.7045 32.4042 53.2872 31.9735 51.9256 31.4177C50.5639 30.8342 49.3134 30.1395 48.1741 29.3336L50.7168 24.3733C50.9669 24.6234 51.4115 24.9569 52.0506 25.3737C52.6898 25.7627 53.4679 26.1657 54.3849 26.5825C55.3019 26.9715 56.3023 27.305 57.3861 27.5829C58.4698 27.8608 59.5675 27.9997 60.679 27.9997C62.2352 27.9997 63.4162 27.7357 64.2221 27.2077C65.028 26.6798 65.4309 25.9295 65.4309 24.9569C65.4309 24.0676 65.1113 23.3729 64.4722 22.8727C63.8331 22.3725 62.9438 21.9418 61.8045 21.5805C60.6651 21.1915 59.3174 20.7746 57.7612 20.33C55.8994 19.802 54.3432 19.2185 53.0927 18.5793C51.8422 17.9124 50.9113 17.0787 50.2999 16.0784C49.6886 15.078 49.3829 13.8275 49.3829 12.3269C49.3829 10.2983 49.8553 8.60318 50.8001 7.24154C51.7727 5.8521 53.0788 4.81002 54.7184 4.1153C56.3579 3.3928 58.1781 3.03154 60.1788 3.03154C61.5683 3.03154 62.8743 3.18438 64.0971 3.49006C65.3475 3.79573 66.5147 4.19867 67.5984 4.69887C68.6822 5.19906 69.6548 5.74094 70.5163 6.32451L67.9736 10.993ZM75.9051 32.835V3.28164H81.6574V17.3288L94.0789 3.23996H100.415L89.077 16.3701L101.123 32.835H94.6208L85.4088 20.0799L81.6574 23.9981V32.835H75.9051ZM107.123 3.23996L114.418 17.1621L121.838 3.23996H128.048L117.294 22.4976V32.835H111.584V22.4142L100.871 3.23996H107.123ZM131.306 32.835V3.23996H142.06C145.284 3.23996 147.979 3.90689 150.147 5.24075C152.314 6.54682 153.94 8.3253 155.024 10.5762C156.108 12.7993 156.649 15.2725 156.649 17.9958C156.649 20.997 156.052 23.6091 154.857 25.8322C153.662 28.0553 151.967 29.7782 149.772 31.0009C147.604 32.2236 145.034 32.835 142.06 32.835H131.306ZM150.856 17.9958C150.856 16.0784 150.508 14.3971 149.813 12.9521C149.119 11.4793 148.118 10.34 146.812 9.53411C145.506 8.70044 143.922 8.28361 142.06 8.28361H137.058V27.7913H142.06C143.95 27.7913 145.548 27.3745 146.854 26.5408C148.16 25.6794 149.147 24.5122 149.813 23.0394C150.508 21.5388 150.856 19.8576 150.856 17.9958ZM161.144 32.835V3.23996H174.232C175.594 3.23996 176.844 3.51784 177.984 4.07362C179.151 4.62939 180.151 5.37969 180.985 6.32451C181.846 7.26932 182.499 8.3253 182.944 9.49242C183.416 10.6596 183.653 11.8545 183.653 13.0772C183.653 14.3277 183.43 15.5365 182.986 16.7036C182.569 17.8429 181.958 18.8433 181.152 19.7048C180.346 20.5662 179.401 21.2332 178.317 21.7056L185.07 32.835H178.734L172.648 22.9144H166.896V32.835H161.144ZM166.896 17.8707H174.107C174.83 17.8707 175.469 17.6623 176.025 17.2455C176.58 16.8009 177.025 16.2173 177.359 15.4948C177.692 14.7723 177.859 13.9664 177.859 13.0772C177.859 12.1324 177.664 11.3126 177.275 10.6179C176.886 9.89536 176.386 9.32569 175.775 8.90886C175.191 8.49203 174.552 8.28361 173.857 8.28361H166.896V17.8707ZM201.332 33.0434C199.164 33.0434 197.191 32.6265 195.413 31.7929C193.662 30.9592 192.148 29.8338 190.869 28.4166C189.619 26.9715 188.646 25.3598 187.952 23.5813C187.257 21.775 186.909 19.9271 186.909 18.0375C186.909 16.0645 187.271 14.1887 187.993 12.4102C188.744 10.604 189.758 9.00612 191.036 7.61668C192.342 6.19946 193.871 5.08791 195.621 4.28203C197.4 3.44837 199.345 3.03154 201.457 3.03154C203.597 3.03154 205.542 3.46227 207.293 4.32372C209.071 5.18517 210.585 6.3384 211.836 7.78342C213.086 9.22843 214.059 10.8402 214.754 12.6187C215.449 14.3971 215.796 16.2312 215.796 18.1208C215.796 20.066 215.435 21.9418 214.712 23.748C213.99 25.5265 212.975 27.1244 211.669 28.5416C210.391 29.931 208.863 31.0287 207.084 31.8346C205.333 32.6404 203.416 33.0434 201.332 33.0434ZM192.745 18.0375C192.745 19.3157 192.94 20.5523 193.329 21.7473C193.718 22.9422 194.273 24.012 194.996 24.9569C195.746 25.8739 196.649 26.6103 197.705 27.1661C198.789 27.694 200.012 27.958 201.374 27.958C202.763 27.958 204 27.6802 205.083 27.1244C206.167 26.5408 207.07 25.7766 207.793 24.8318C208.515 23.8592 209.057 22.7893 209.418 21.6222C209.807 20.4273 210.002 19.2324 210.002 18.0375C210.002 16.7592 209.793 15.5365 209.377 14.3693C208.988 13.1744 208.418 12.1185 207.668 11.2014C206.945 10.2566 206.042 9.52021 204.958 8.99223C203.902 8.43645 202.707 8.15856 201.374 8.15856C199.956 8.15856 198.706 8.45035 197.622 9.03391C196.566 9.58968 195.677 10.34 194.954 11.2848C194.232 12.2296 193.676 13.2856 193.287 14.4527C192.926 15.6198 192.745 16.8148 192.745 18.0375ZM225.961 13.8275V32.835H220.208V3.23996H224.794L240.091 22.7476V3.28164H245.844V32.835H241.05L225.961 13.8275ZM272.55 27.7913V32.835H252V3.23996H272.175V8.28361H257.752V15.4114H270.215V20.0799H257.752V27.7913H272.55Z" fill="#F3F3F3"/>
</svg>
